<?xml version="1.0" encoding="UTF-8"?>
<svg id="Camada_2" data-name="Camada 2" xmlns="http://www.w3.org/2000/svg" viewBox="0 0 124.29 36.07">
  <defs>
    <style>
      .cls-1 {
        fill: #0030b9;
        stroke-width: 0px;
      }
    </style>
  </defs>
  <g id="Camada_1-2" data-name="Camada 1">
    <g>
      <path class="cls-1" d="M103.02,35.32l-11.47-19.28c-.26-.45-.83-.74-1.45-.74s-1.15.29-1.45.75l-10.15,17.19s0,0,0,.01l-1.24,2.08c-.04.08-.07.16-.07.25,0,.26.21.48.46.49h2.37s.03,0,.03,0c.25,0,.48-.13.61-.35l2.79-4.78s.09-.07.14-.06c2.18.52,4.41.79,6.63.79s4.35-.26,6.49-.76c.05-.01.11.01.14.06l2.02,3.38s0,0,0,.01l.81,1.36c.13.22.36.35.61.35h2.35c.25,0,.46-.23.46-.49,0-.09-.02-.18-.07-.26t0,0ZM94.91,28.05c-1.56.28-3.14.43-4.69.43s-3.24-.15-4.85-.46c-.04,0-.08-.04-.09-.08-.02-.04-.01-.09,0-.12l4.72-8.01s.06-.06.11-.06c.04,0,.08.02.11.06l4.78,8.04s.03.08,0,.12c-.02.04-.05.07-.09.08Z"/>
      <path class="cls-1" d="M25.83,35.32l-11.47-19.28c-.26-.45-.83-.74-1.45-.74s-1.15.29-1.45.75L1.32,33.23s0,0,0,.01l-1.24,2.08c-.04.08-.07.16-.07.25,0,.26.21.48.46.49h2.37s.03,0,.03,0c.25,0,.48-.13.61-.35l2.79-4.78s.09-.07.14-.06c2.18.52,4.41.79,6.63.79s4.35-.26,6.49-.76c.05-.01.11.01.14.06l2.02,3.38s0,0,0,.01l.81,1.36c.13.22.36.35.61.35h2.35c.25,0,.46-.23.46-.49,0-.09-.02-.18-.07-.26t0,0ZM17.72,28.05c-1.56.28-3.14.43-4.69.43s-3.24-.15-4.85-.46c-.04,0-.08-.04-.09-.08-.02-.04-.01-.09,0-.12l4.72-8.01s.06-.06.11-.06c.04,0,.08.02.11.06l4.78,8.04s.03.08,0,.12c-.02.04-.05.07-.09.08Z"/>
      <path class="cls-1" d="M42.98,24.14c-2.11-.72-4.64-.86-6.67-.98-.52-.03-1.01-.06-1.43-.09-3.4-.27-3.4-1.56-3.39-2.26,0-1.81,2.45-2.4,4.49-2.57,1.05-.09,2.15-.04,3.25.17.08.02.22.05.33.07l.81.18c.05.01.1.02.15.02.31,0,.58-.21.66-.51l.42-1.72c.01-.06.02-.11.02-.17,0-.32-.22-.59-.52-.66l-.73-.17c-.09-.02-.21-.04-.37-.07-1.46-.28-2.92-.35-4.34-.23-6.8.59-7.55,4.15-7.56,5.66,0,1.82.82,4.93,6.49,5.38.46.04.96.06,1.5.09h.03c5.21.29,7.86.88,7.91,3.32.02.84-.23,1.48-.77,1.99-1.19,1.12-3.56,1.36-4.37,1.36-.05,0-.1,0-.14,0-.05,0-4.65.28-8.23-1.64l-.86-.47c-.1-.06-.22-.09-.34-.09-.25,0-.49.14-.61.36l-.85,1.58c-.06.1-.08.21-.08.32,0,.24.13.47.34.59l.67.39c3.5,1.89,7.64,2.09,9.26,2.09.42,0,.72-.01.85-.02.72,0,4.43-.13,6.74-2.28,1.18-1.1,1.79-2.57,1.76-4.24-.03-1.78-.83-4.16-4.42-5.39Z"/>
      <path class="cls-1" d="M119.87,24.14c-2.11-.72-4.64-.86-6.67-.98-.52-.03-1.01-.06-1.43-.09-3.4-.27-3.4-1.56-3.39-2.26,0-1.81,2.45-2.4,4.49-2.57,1.05-.09,2.15-.04,3.25.17.08.02.22.05.33.07l.81.18c.05.01.1.02.15.02.31,0,.58-.21.67-.51l.42-1.72c.01-.06.02-.11.02-.17,0-.32-.21-.59-.52-.66l-.73-.17c-.09-.02-.21-.04-.37-.07-1.47-.28-2.92-.35-4.34-.23-6.8.59-7.55,4.15-7.56,5.66,0,1.82.82,4.93,6.49,5.38.46.04.96.06,1.5.09h.03c5.21.29,7.86.88,7.91,3.32.02.84-.23,1.48-.77,1.99-1.19,1.12-3.56,1.36-4.37,1.36-.05,0-.1,0-.14,0-.04,0-4.65.28-8.22-1.64l-.86-.47c-.1-.06-.22-.09-.34-.09-.25,0-.49.14-.61.36l-.85,1.58c-.06.1-.08.21-.08.32,0,.24.13.47.34.59l.67.39c3.5,1.89,7.64,2.09,9.26,2.09.42,0,.72-.01.85-.02.72,0,4.43-.13,6.74-2.28,1.18-1.1,1.79-2.57,1.76-4.24-.03-1.78-.83-4.16-4.42-5.39Z"/>
      <path class="cls-1" d="M79.16,9.59c1.82-2.14,2.7-4.91,2.43-7.59-.07-.5-.29-1.39-.88-1.78-.08-.05-.15-.09-.22-.12-.16-.07-.33-.11-.5-.1-.02,0-.05.01-.06.03-1.04,1.49-3.05,3.8-6.71,6.35-1.86,1.29-3.3,2.16-4.5,2.88,0,0-.32.19-.32.19-.35.21-.66.39-.96.57-.56.37-1.06.75-1.5,1.12-1.01.9-2.99,3-3.29,5.94,0,0-.35,2.37,1.18,5.51l1.85,3.36h0l.88,1.6h0s.15.28.15.28c.02.04.03.08,0,.12-.02.04-.05.07-.09.08-1.56.28-3.14.43-4.69.43s-3.24-.15-4.85-.46c-.04,0-.08-.04-.09-.08-.02-.04-.01-.09,0-.12l.17-.31,2.65-4.83c1.57-3.17,1.21-5.57,1.21-5.57-.31-3.02-2.39-5.15-3.37-6.01-.42-.35-.89-.71-1.42-1.05-.3-.18-.61-.37-.96-.57,0,0-.32-.19-.32-.19-1.2-.71-2.64-1.58-4.5-2.88-3.66-2.55-5.67-4.86-6.71-6.35-.01-.02-.04-.03-.06-.03-.17,0-.34.03-.5.1-.07.03-.14.07-.22.12-.59.39-.8,1.28-.88,1.78-.27,2.68.61,5.45,2.43,7.59.03.03.04.08.03.12-.96,3.07.26,6.67,2.96,8.75l1.01.98s.04.06.04.1c-.15,2.65,1.28,5.27,3.64,6.66l1.48.87s.05.05.06.08c0,.03,0,.07-.02.1l-.06.1h0l-3.45,5.85s0,0,0,.01l-1.24,2.08c-.04.08-.07.16-.07.25,0,.26.21.48.46.49h2.37s.03,0,.03,0c.25,0,.48-.13.61-.35l2.79-4.78s.09-.07.14-.06c2.18.52,4.41.79,6.63.79s4.35-.26,6.49-.76c.05-.01.11.01.14.06l2.02,3.38s0,0,0,.01l.81,1.36c.13.22.36.35.61.35h2.35c.25,0,.46-.23.46-.49,0-.09-.02-.18-.07-.25h0s-4.72-7.94-4.72-7.94h0l-.06-.1h0s-.02-.07-.02-.11c0-.03.03-.06.06-.08l1.48-.87c2.37-1.39,3.8-4.01,3.64-6.66,0-.04.01-.08.04-.1l1.01-.98c2.7-2.08,3.92-5.68,2.96-8.75-.01-.04,0-.09.03-.12Z"/>
    </g>
  </g>
</svg>