<svg xmlns="http://www.w3.org/2000/svg" width="119" height="12" viewBox="0 0 119 12" fill="none"><g clip-path="url(#clip0_283_1200)"><path d="M13.6179 2.7865C13.613 2.68851 13.6007 2.58397 13.582 2.47781C13.5117 2.07683 13.3419 1.69463 13.092 1.37124C12.6183 0.753028 11.8506 0.372466 11.0683 0.377366H7.66364V3.0168H10.4035C10.7237 3.0168 10.9825 3.27732 10.9825 3.59744V8.40429C10.9858 8.55537 10.9246 8.70073 10.8127 8.8118C10.7032 8.92287 10.5538 8.9833 10.4027 8.9833H7.66282V11.6219H11.0846C11.8523 11.6219 12.6199 11.243 13.0879 10.6297C13.3394 10.3079 13.5093 9.92572 13.5811 9.52311C13.6073 9.37938 13.6203 9.22666 13.6203 9.06905V2.93105C13.6203 2.88287 13.6203 2.8355 13.6171 2.78732L13.6179 2.7865ZM2.5383 0.377366C1.76656 0.377366 0.998901 0.757928 0.529323 1.37124C0.279426 1.69708 0.109561 2.07928 0.0393288 2.47699C0.0123792 2.62562 -0.00150401 2.77834 0.000129305 2.93105V9.06823C-0.00150401 9.22258 0.0123792 9.37529 0.0393288 9.52229C0.109561 9.92327 0.281059 10.3055 0.530956 10.6289C1.00053 11.2422 1.76656 11.6211 2.53585 11.6211H5.95764V8.98248H3.21122C3.06178 8.98248 2.91641 8.92041 2.80698 8.81098C2.69755 8.70155 2.63548 8.55374 2.63875 8.40347V3.59744C2.63875 3.27732 2.89763 3.0168 3.21776 3.0168H5.95764V0.377366H2.5383Z" fill="#EB6223"></path><path d="M68.3896 0.378136C67.7453 0.378136 67.1001 0.659066 66.6208 1.14824C66.1414 1.63742 65.8743 2.2883 65.8882 2.93101V9.06655C65.8743 9.72069 66.1479 10.3773 66.6395 10.8697C67.1197 11.3499 67.7567 11.6227 68.3937 11.6227C68.4092 11.6227 68.4256 11.6227 68.4411 11.6227H77.1319V8.98325H69.1058C68.9507 8.9808 68.8078 8.92282 68.6975 8.81257C68.5873 8.70232 68.5252 8.55369 68.5268 8.40342V3.59658C68.5268 3.27727 68.7873 3.01675 69.1067 3.01675H77.1319V0.377319H68.3896V0.378136Z" fill="#201E1D"></path><path d="M88.7927 0.377319H81.9311C80.5983 0.378953 79.4297 1.55086 79.4297 2.88446V9.11637C79.4297 10.4508 80.6008 11.6219 81.9352 11.6219H88.7984C90.1312 11.6219 91.3006 10.4508 91.3006 9.11473V2.88446C91.2998 1.54922 90.1279 0.377319 88.7927 0.377319ZM88.6604 3.5974V8.40342C88.6604 8.72274 88.3999 8.98243 88.0797 8.98243H82.6473C82.5003 8.98897 82.3501 8.92282 82.2398 8.81257C82.1287 8.70232 82.0667 8.55369 82.0683 8.40342V3.5974C82.0683 3.28788 82.31 3.03309 82.6147 3.01839H88.0797C88.1385 3.01839 88.1973 3.02737 88.2512 3.04289C88.2692 3.0486 88.2863 3.05432 88.2994 3.06004C88.3067 3.0633 88.3133 3.06657 88.3337 3.07555C88.3492 3.0829 88.3639 3.09107 88.3811 3.10169C88.4537 3.14579 88.5134 3.20295 88.5599 3.27319C88.6253 3.36955 88.6604 3.48225 88.6604 3.59658V3.5974Z" fill="#201E1D"></path><path d="M17.819 1.13067C17.3274 1.6223 17.053 2.27971 17.0669 2.93222V9.06695C17.0538 9.70394 17.3152 10.3483 17.7839 10.8358C18.2527 11.3234 18.8864 11.6092 19.5308 11.6206L28.3106 11.6223V8.98283H20.2845C20.1367 8.98038 19.9865 8.9224 19.8762 8.81215C19.766 8.7019 19.7039 8.55327 19.7055 8.403V3.59698C19.7055 3.27766 19.9652 3.01715 20.2854 3.01715H28.3106V0.377716H19.6222C18.9673 0.365466 18.3107 0.637413 17.819 1.12986V1.13067Z" fill="#201E1D"></path><path d="M56.0118 7.11637L49.6737 0.778298L49.6443 0.748898C49.5251 0.63375 49.387 0.543101 49.2319 0.477768C49.218 0.472052 49.2041 0.466335 49.1902 0.460618C49.0424 0.405086 48.8873 0.377319 48.728 0.377319C48.3752 0.377319 48.0436 0.514518 47.7946 0.764415C47.5447 1.01431 47.4075 1.34587 47.4075 1.69785V11.6211H50.0469V4.88282L56.4128 11.2487C56.545 11.3769 56.6986 11.4749 56.8693 11.5386C57.0171 11.5941 57.1722 11.6219 57.3315 11.6219C57.6843 11.6219 58.0158 11.4847 58.2657 11.2348C58.5156 10.9849 58.6528 10.6533 58.6528 10.3005V0.377319H56.0134V7.11637H56.0118Z" fill="#201E1D"></path><path d="M105.067 4.70923C105.132 4.15063 105.132 3.05141 105.067 2.49282C104.999 2.10491 104.833 1.73251 104.591 1.42218C104.134 0.823573 103.392 0.458528 102.639 0.463428H93.6816V11.5365H96.1503V7.97667H102.079C102.395 8.02567 102.642 8.30905 102.639 8.6349V11.5373H105.107V9.20737C105.107 9.05956 105.095 8.91338 105.068 8.76883C104.881 7.62143 103.802 6.71902 102.639 6.73944C102.671 6.73944 102.703 6.7378 102.735 6.7378C103.864 6.71167 104.886 5.82396 105.069 4.71004L105.067 4.70923ZM102.639 4.84398C102.639 5.17554 102.395 5.44994 102.077 5.50057H96.1495V2.93137H101.974C102.332 2.92728 102.644 3.23434 102.639 3.59694V4.84398Z" fill="#201E1D"></path><path d="M63.5926 0.377319H60.9531V11.6219H63.5926V0.377319Z" fill="#201E1D"></path><path d="M45.1101 0.377319H42.4707V11.6219H45.1101V0.377319Z" fill="#201E1D"></path><path d="M33.2474 8.40587V2.93101V0.377319H30.6079V9.06655C30.594 9.72069 30.8676 10.3773 31.3601 10.8697C31.8403 11.3499 32.4773 11.6227 33.1142 11.6227C33.1298 11.6227 33.1461 11.6227 33.1624 11.6227H40.1751V8.98325H33.828C33.5144 8.98325 33.2555 8.72927 33.249 8.40669L33.2474 8.40587Z" fill="#201E1D"></path><path d="M118.996 2.79174C118.969 2.29766 118.789 1.81502 118.486 1.42466C118.486 1.42384 118.485 1.42302 118.484 1.42302C118.028 0.823597 117.285 0.460184 116.532 0.464267H107.575V11.5365H110.043V7.9767H116.585C117.321 7.96608 118.038 7.60348 118.485 7.01957C118.485 7.01957 118.487 7.01794 118.487 7.01631C118.82 6.5892 119.002 6.05102 119 5.50958V2.93139C119 2.88484 119 2.83829 118.996 2.79174H118.996ZM116.532 4.84482C116.536 5.16168 116.287 5.45731 115.971 5.50059H115.971L110.042 5.50141V2.93139H115.867C116.226 2.92731 116.537 3.23437 116.532 3.59696V4.844L116.532 4.84482Z" fill="#201E1D"></path></g><defs><clipPath id="clip0_283_1200"><rect width="119" height="11.2454" fill="white" transform="translate(0 0.377319)"></rect></clipPath></defs></svg>