<?xml version="1.0" encoding="UTF-8"?>
<svg id="Layer_1" data-name="Layer 1" xmlns="http://www.w3.org/2000/svg" viewBox="0 0 1039.53 273.08">
  <defs>
    <style>
      .cls-1 {
        fill: #2db56f;
      }
    </style>
  </defs>
  <path class="cls-1" d="M373.08,170.99l31.6,53.23h44.24l-50.07-80.21,47.88-50.31h-42.54l-47.88,49.34V43.87h-37.43v180.35h37.43v-35.49l16.77-17.74ZM483.22,35.36c-11.91,0-20.17,8.75-20.17,20.9s8.26,20.9,20.17,20.9,20.17-8.75,20.17-20.9-8.26-20.9-20.17-20.9ZM501.94,224.22V93.45h-37.43v130.77h37.43ZM694.38,224.22l47.64-130.77h-36.95l-28.68,93.58-28.68-93.58h-36.7l-28.2,93.58-29.17-93.58-38.16.24,47.88,130.53h37.43l27.95-86.29,28.2,86.29h37.43ZM773.59,35.36c-11.91,0-20.17,8.75-20.17,20.9s8.26,20.9,20.17,20.9,20.17-8.75,20.17-20.9-8.26-20.9-20.17-20.9ZM792.3,224.22V93.45h-37.43v130.77h37.43ZM884.37,73.04c5.35,0,11.42,1.94,16.29,5.59l13.37-27.22c-9.24-6.08-22.12-9.24-34.27-9.24-26.25,0-48.13,15.56-48.13,44.72v12.4h-17.5v26.01h17.5v98.93h37.19v-98.93h30.87v-26.01h-30.87v-10.94c0-10.45,6.81-15.31,15.56-15.31ZM1039.53,93.45h-37.43l-30.87,89.93-34.27-89.93h-38.65l54.2,128.1-3.65,7.29c-3.65,7.78-9.48,11.67-17.26,11.67-6.08,0-11.18-2.19-17.01-7.05l-15.8,26.98c10.69,8.75,21.63,12.64,35.49,12.64,22.61,0,38.65-11.18,47.88-34.27l57.36-145.35Z"/>
  <g>
    <path class="cls-1" d="M244.8,197.95c-46.78,46.78-122.89,46.78-169.67,0-46.78-46.78-46.78-122.89,0-169.67L46.85,0c-62.47,62.47-62.47,163.76,0,226.23,62.47,62.47,163.76,62.47,226.23,0l-28.28-28.28Z"/>
    <path class="cls-1" d="M200.83,193.29c5.54-2.82,5.45-14.08-.19-25.15-5.64-11.07-14.7-17.76-20.23-14.94-5.54,2.82-5.45,14.08.19,25.15,5.64,11.07,14.7,17.76,20.23,14.94Z"/>
    <path class="cls-1" d="M79.8,72.27c-2.82,5.53,3.87,14.59,14.94,20.23,11.07,5.64,22.33,5.73,25.15.19,2.82-5.53-3.87-14.59-14.94-20.23-11.07-5.64-22.33-5.73-25.15-.19Z"/>
    <path class="cls-1" d="M96.33,176.74c4.39,4.39,15.07.83,23.86-7.95,8.79-8.78,12.35-19.47,7.96-23.86-4.39-4.39-15.07-.83-23.86,7.95-8.79,8.78-12.35,19.47-7.96,23.86Z"/>
    <path class="cls-1" d="M145.91,202c6.14.97,12.68-8.19,14.63-20.46,1.94-12.27-1.46-23.01-7.59-23.98-6.14-.97-12.68,8.19-14.63,20.46-1.94,12.27,1.46,23.01,7.59,23.98Z"/>
    <path class="cls-1" d="M71.1,127.18c.97,6.14,11.71,9.54,23.98,7.59,12.27-1.94,21.43-8.49,20.46-14.63-.97-6.14-11.71-9.54-23.98-7.59-12.27,1.94-21.43,8.49-20.46,14.63Z"/>
  </g>
</svg>