<svg class="hidden md:block" fill="none" style="width: 8.25rem; height: 1.75rem;" viewBox="0 0 132 28" xmlns="http://www.w3.org/2000/svg"><path d="M25.5006 27.9949H20.2462C19.2734 27.9948 18.3152 27.759 17.4534 27.3077C16.5916 26.8563 15.8521 26.2029 15.298 25.4033L11.9992 20.6378L9.41945 16.9118C9.30209 16.7414 9.13326 16.6131 8.93769 16.5457C8.74211 16.4783 8.53008 16.4752 8.33265 16.5371C8.13523 16.5989 7.96279 16.7223 7.84062 16.8893C7.71845 17.0562 7.65296 17.2579 7.65375 17.4648V26.4452C7.65375 26.8562 7.49047 27.2504 7.19984 27.541C6.90921 27.8316 6.51503 27.9949 6.10402 27.9949H1.54974C1.13892 27.9943 0.745099 27.8308 0.454603 27.5403C0.164108 27.2498 0.00062769 26.856 0 26.4452V19.7597C0 18.9694 0.155676 18.1867 0.458138 17.4565C0.760599 16.7263 1.20393 16.0628 1.7628 15.5039C2.32168 14.9451 2.98516 14.5017 3.71537 14.1993C4.44557 13.8968 5.2282 13.7411 6.01857 13.7411H7.2052C7.28172 13.741 7.35708 13.7224 7.42485 13.6869C7.49262 13.6513 7.5508 13.5999 7.59441 13.537L11.9897 7.19808L15.177 2.59397C15.7301 1.79322 16.4694 1.13879 17.3313 0.686947C18.1932 0.235102 19.152 -0.000636831 20.1252 1.29206e-06H25.3748C25.4613 9.14672e-06 25.546 0.0236023 25.62 0.0682411C25.694 0.11288 25.7544 0.176873 25.7947 0.253311C25.835 0.329749 25.8536 0.415735 25.8487 0.502C25.8437 0.588266 25.8152 0.671536 25.7664 0.742831L18.0747 11.852C17.654 12.4584 17.4285 13.1788 17.4285 13.9168C17.4285 14.6548 17.654 15.3752 18.0747 15.9815L25.9017 27.2497C25.9517 27.3217 25.9807 27.4061 25.9857 27.4936C25.9906 27.5811 25.9713 27.6682 25.9298 27.7453C25.8882 27.8225 25.8262 27.8867 25.7504 27.9307C25.6747 27.9748 25.5882 27.997 25.5006 27.9949Z" fill="currentColor"></path><path d="M76.4482 27.4712H69.9313V15.5527C69.9313 15.0007 69.712 14.4713 69.3216 14.081C68.9313 13.6906 68.4019 13.4714 67.8499 13.4714C67.2979 13.4714 66.7685 13.6906 66.3782 14.081C65.9879 14.4713 65.7686 15.0007 65.7686 15.5527V27.4617H59.2635V27.0606C59.2635 25.0528 59.2635 19.8696 59.2635 16.642C59.2622 16.2822 59.1901 15.9261 59.0511 15.5941C58.9122 15.2622 58.7092 14.9608 58.4538 14.7074C58.1983 14.4539 57.8954 14.2533 57.5624 14.1169C57.2294 13.9806 56.8727 13.9112 56.5129 13.9128H55.0889V27.4712H48.5957V7.61179H48.9398C51.4033 7.61179 53.8667 7.63552 56.3301 7.61179C58.7034 7.58331 60.818 8.18611 62.5006 9.95894C62.7735 9.70262 63.0322 9.43682 63.3146 9.1995C64.4229 8.26444 65.6452 7.53822 67.0952 7.26767C70.8663 6.54145 75.0836 9.00963 76.1444 12.6051C76.3416 13.2774 76.443 13.974 76.4458 14.6746C76.4482 18.861 76.4482 27.3834 76.4482 27.4712Z" fill="currentColor"></path><path d="M108.206 27.4712H101.689V15.5527C101.699 15.2736 101.652 14.9955 101.552 14.7349C101.451 14.4743 101.3 14.2365 101.105 14.0358C100.911 13.835 100.679 13.6753 100.422 13.5663C100.165 13.4573 99.8883 13.4011 99.609 13.4011C99.3298 13.4011 99.0534 13.4573 98.7963 13.5663C98.5393 13.6753 98.3068 13.835 98.1127 14.0358C97.9186 14.2365 97.7669 14.4743 97.6666 14.7349C97.5663 14.9955 97.5195 15.2736 97.5289 15.5527V27.4617H91.0143V27.0606C91.0143 25.0528 91.0143 19.8696 91.0143 16.642C91.0143 15.9157 90.7258 15.2191 90.2122 14.7054C89.6985 14.1918 89.0019 13.9033 88.2756 13.9033H86.8516V27.4617H80.3418V7.61179H80.6859C83.1493 7.61179 85.6128 7.63552 88.0762 7.61179C90.4495 7.58331 92.564 8.18611 94.2467 9.95894C94.5196 9.70262 94.7783 9.43682 95.0607 9.1995C96.169 8.26444 97.3912 7.53822 98.8413 7.26767C102.612 6.54145 106.83 9.00963 107.891 12.6051C108.087 13.2775 108.188 13.9741 108.19 14.6746L108.206 27.4712Z" fill="currentColor"></path><path d="M25.0939 17.5837C25.0939 12.6331 28.7677 8.16427 33.6519 7.336C37.5013 6.68335 40.6743 8.04798 43.1449 11.0027C44.0408 12.0377 44.7138 13.2462 45.1222 14.5528C45.5305 15.8594 45.6653 17.2361 45.5182 18.5971C45.2571 21.2931 44.0396 23.5335 42.0532 25.3443C40.1546 27.0839 37.8858 28.0284 35.2871 27.9928C31.853 27.9406 29.1593 26.4099 27.1302 23.6877C25.7934 21.9351 25.077 19.7879 25.0939 17.5837ZM31.3688 17.5837C31.3699 18.2784 31.5324 18.9633 31.8435 19.5844C32.0996 20.1558 32.492 20.6557 32.9864 21.04C33.4808 21.4244 34.062 21.6815 34.6789 21.7888C35.2959 21.8961 35.9297 21.8503 36.5249 21.6555C37.12 21.4607 37.6582 21.1227 38.0922 20.6713C38.7581 19.9467 39.1694 19.0246 39.2636 18.0451C39.3579 17.0655 39.1299 16.0819 38.6144 15.2437C38.1154 14.3776 37.2939 13.7441 36.3294 13.4818C35.3649 13.2194 34.3357 13.3494 33.4668 13.8435C32.0428 14.6575 31.459 15.9889 31.3593 17.5742L31.3688 17.5837Z" fill="currentColor"></path><path d="M131.72 17.1733C131.732 22.6982 127.79 27.2762 122.737 27.9123C119.235 28.3537 116.313 27.1125 113.956 24.5304C112.464 22.9349 111.534 20.8957 111.308 18.723C110.997 15.7469 111.866 13.1221 113.778 10.8462C115.318 8.94289 117.511 7.68001 119.93 7.30291C123.051 6.80927 125.804 7.68975 128.137 9.78059C130.47 11.8714 131.666 14.4583 131.72 17.1733ZM125.441 17.5862C125.438 16.9157 125.287 16.2542 124.997 15.6497C123.677 12.8231 120.431 12.8445 118.926 14.3301C118.331 14.8777 117.9 15.5796 117.681 16.3577C117.461 17.1358 117.462 17.9595 117.682 18.7372C118.278 21.0891 120.53 22.3588 122.73 21.6279C124.304 21.1081 125.441 19.4113 125.441 17.5862Z" fill="currentColor"></path></svg>