<svg version="1.1" id="Layer_1" xmlns:x="ns_extend;" xmlns:i="ns_ai;" xmlns:graph="ns_graphs;" xmlns="http://www.w3.org/2000/svg" xmlns:xlink="http://www.w3.org/1999/xlink" x="0px" y="0px" viewBox="0 0 53 53" style="enable-background:new 0 0 53 53;" xml:space="preserve">
 <style type="text/css">
  .st0{stroke:#000000;stroke-width:0.3464;}
	.st1{fill:#19C1CE;}
 </style>
 <metadata>
  <sfw xmlns="ns_sfw;">
   <slices>
   </slices>
   <sliceSourceBounds bottomLeftOrigin="true" height="53" width="53" x="272.9" y="50">
   </sliceSourceBounds>
  </sfw>
 </metadata>
 <g>
  <path class="st0" d="M26.5,38.3L26.5,38.3h-0.1L0.2,48v-8.4l26.3-9.7l26.3,9.7V48L26.5,38.3z">
  </path>
  <path class="st1" d="M26.5,38.5L0,48.3L9.8,53l16.7-6.2L43.2,53l9.8-4.7L26.5,38.5z">
  </path>
  <path class="st0" d="M26.4,14.7L26.4,14.7h0.1L52.8,5v8.4l-26.3,9.7L0.2,13.4V5L26.4,14.7z">
  </path>
  <path class="st1" d="M26.5,14.5L53,4.7L43.2,0L26.5,6.2L9.8,0L0,4.7L26.5,14.5z">
  </path>
 </g>
</svg>