<svg xmlns="http://www.w3.org/2000/svg" xmlns:xlink="http://www.w3.org/1999/xlink">
  <!-- Asaas -->
  <symbol id="asaas" viewBox="0 0 124.29 36.07">
    <path fill="#0030b9" d="M103.02,35.32l-11.47-19.28c-.26-.45-.83-.74-1.45-.74s-1.15.29-1.45.75l-10.15,17.19s0,0,0,.01l-1.24,2.08c-.04.08-.07.16-.07.25,0,.26.21.48.46.49h2.37s.03,0,.03,0c.25,0,.48-.13.61-.35l2.79-4.78s.09-.07.14-.06c2.18.52,4.41.79,6.63.79s4.35-.26,6.49-.76c.05-.01.11.01.14.06l2.02,3.38s0,0,0,.01l.81,1.36c.13.22.36.35.61.35h2.35c.25,0,.46-.23.46-.49,0-.09-.02-.18-.07-.26t0,0ZM94.91,28.05c-1.56.28-3.14.43-4.69.43s-3.24-.15-4.85-.46c-.04,0-.08-.04-.09-.08-.02-.04-.01-.09,0-.12l4.72-8.01s.06-.06.11-.06c.04,0,.08.02.11.06l4.78,8.04s.03.08,0,.12c-.02.04-.05.07-.09.08Z"/>
    <path fill="#0030b9" d="M25.83,35.32l-11.47-19.28c-.26-.45-.83-.74-1.45-.74s-1.15.29-1.45.75L1.32,33.23s0,0,0,.01l-1.24,2.08c-.04.08-.07.16-.07.25,0,.26.21.48.46.49h2.37s.03,0,.03,0c.25,0,.48-.13.61-.35l2.79-4.78s.09-.07.14-.06c2.18.52,4.41.79,6.63.79s4.35-.26,6.49-.76c.05-.01.11.01.14.06l2.02,3.38s0,0,0,.01l.81,1.36c.13.22.36.35.61.35h2.35c.25,0,.46-.23.46-.49,0-.09-.02-.18-.07-.26t0,0ZM17.72,28.05c-1.56.28-3.14.43-4.69.43s-3.24-.15-4.85-.46c-.04,0-.08-.04-.09-.08-.02-.04-.01-.09,0-.12l4.72-8.01s.06-.06.11-.06c.04,0,.08.02.11.06l4.78,8.04s.03.08,0,.12c-.02.04-.05.07-.09.08Z"/>
    <path fill="#0030b9" d="M42.98,24.14c-2.11-.72-4.64-.86-6.67-.98-.52-.03-1.01-.06-1.43-.09-3.4-.27-3.4-1.56-3.39-2.26,0-1.81,2.45-2.4,4.49-2.57,1.05-.09,2.15-.04,3.25.17.08.02.22.05.33.07l.81.18c.05.01.1.02.15.02.31,0,.58-.21.66-.51l.42-1.72c.01-.06.02-.11.02-.17,0-.32-.22-.59-.52-.66l-.73-.17c-.09-.02-.21-.04-.37-.07-1.46-.28-2.92-.35-4.34-.23-6.8.59-7.55,4.15-7.56,5.66,0,1.82.82,4.93,6.49,5.38.46.04.96.06,1.5.09h.03c5.21.29,7.86.88,7.91,3.32.02.84-.23,1.48-.77,1.99-1.19,1.12-3.56,1.36-4.37,1.36-.05,0-.1,0-.14,0-.05,0-4.65.28-8.23-1.64l-.86-.47c-.1-.06-.22-.09-.34-.09-.25,0-.49.14-.61.36l-.85,1.58c-.06.1-.08.21-.08.32,0,.24.13.47.34.59l.67.39c3.5,1.89,7.64,2.09,9.26,2.09.42,0,.72-.01.85-.02.72,0,4.43-.13,6.74-2.28,1.18-1.1,1.79-2.57,1.76-4.24-.03-1.78-.83-4.16-4.42-5.39Z"/>
    <path fill="#0030b9" d="M119.87,24.14c-2.11-.72-4.64-.86-6.67-.98-.52-.03-1.01-.06-1.43-.09-3.4-.27-3.4-1.56-3.39-2.26,0-1.81,2.45-2.4,4.49-2.57,1.05-.09,2.15-.04,3.25.17.08.02.22.05.33.07l.81.18c.05.01.1.02.15.02.31,0,.58-.21.67-.51l.42-1.72c.01-.06.02-.11.02-.17,0-.32-.21-.59-.52-.66l-.73-.17c-.09-.02-.21-.04-.37-.07-1.47-.28-2.92-.35-4.34-.23-6.8.59-7.55,4.15-7.56,5.66,0,1.82.82,4.93,6.49,5.38.46.04.96.06,1.5.09h.03c5.21.29,7.86.88,7.91,3.32.02.84-.23,1.48-.77,1.99-1.19,1.12-3.56,1.36-4.37,1.36-.05,0-.1,0-.14,0-.04,0-4.65.28-8.22-1.64l-.86-.47c-.1-.06-.22-.09-.34-.09-.25,0-.49.14-.61.36l-.85,1.58c-.06.1-.08.21-.08.32,0,.24.13.47.34.59l.67.39c3.5,1.89,7.64,2.09,9.26,2.09.42,0,.72-.01.85-.02.72,0,4.43-.13,6.74-2.28,1.18-1.1,1.79-2.57,1.76-4.24-.03-1.78-.83-4.16-4.42-5.39Z"/>
    <path fill="#0030b9" d="M79.16,9.59c1.82-2.14,2.7-4.91,2.43-7.59-.07-.5-.29-1.39-.88-1.78-.08-.05-.15-.09-.22-.12-.16-.07-.33-.11-.5-.1-.02,0-.05.01-.06.03-1.04,1.49-3.05,3.8-6.71,6.35-1.86,1.29-3.3,2.16-4.5,2.88,0,0-.32.19-.32.19-.35.21-.66.39-.96.57-.56.37-1.06.75-1.5,1.12-1.01.9-2.99,3-3.29,5.94,0,0-.35,2.37,1.18,5.51l1.85,3.36h0l.88,1.6h0s.15.28.15.28c.02.04.03.08,0,.12-.02.04-.05.07-.09.08-1.56.28-3.14.43-4.69.43s-3.24-.15-4.85-.46c-.04,0-.08-.04-.09-.08-.02-.04-.01-.09,0-.12l.17-.31,2.65-4.83c1.57-3.17,1.21-5.57,1.21-5.57-.31-3.02-2.39-5.15-3.37-6.01-.42-.35-.89-.71-1.42-1.05-.3-.18-.61-.37-.96-.57,0,0-.32-.19-.32-.19-1.2-.71-2.64-1.58-4.5-2.88-3.66-2.55-5.67-4.86-6.71-6.35-.01-.02-.04-.03-.06-.03-.17,0-.34.03-.5.1-.07.03-.14.07-.22.12-.59.39-.8,1.28-.88,1.78-.27,2.68.61,5.45,2.43,7.59.03.03.04.08.03.12-.96,3.07.26,6.67,2.96,8.75l1.01.98s.04.06.04.1c-.15,2.65,1.28,5.27,3.64,6.66l1.48.87s.05.05.06.08c0,.03,0,.07-.02.1l-.06.1h0l-3.45,5.85s0,0,0,.01l-1.24,2.08c-.04.08-.07.16-.07.25,0,.26.21.48.46.49h2.37s.03,0,.03,0c.25,0,.48-.13.61-.35l2.79-4.78s.09-.07.14-.06c2.18.52,4.41.79,6.63.79s4.35-.26,6.49-.76c.05-.01.11.01.14.06l2.02,3.38s0,0,0,.01l.81,1.36c.13.22.36.35.61.35h2.35c.25,0,.46-.23.46-.49,0-.09-.02-.18-.07-.25h0s-4.72-7.94-4.72-7.94h0l-.06-.1h0s-.02-.07-.02-.11c0-.03.03-.06.06-.08l1.48-.87c2.37-1.39,3.8-4.01,3.64-6.66,0-.04.01-.08.04-.1l1.01-.98c2.7-2.08,3.92-5.68,2.96-8.75-.01-.04,0-.09.03-.12Z"/>
  </symbol>

  <!-- Backblaze -->
  <symbol id="backblaze" viewBox="0 0 930 1534">
    <path fill="#e20626" d="M295.6 0.34C359.54 44.73 407.68 106.65 456.9 165.92C500.83 219.66 524.2 291.7 512.2 360.78C500.99 435.86 439.77 492.55 430.89 568.25C421.85 641.54 461.66 707.97 469.91 779.31C478.09 843.33 474.27 916.7 427.38 966.07C344.59 1050.97 188.81 1045.44 112.87 953.85C68.24 898.4 37.17 828.22 40.59 755.95C40.44 697.77 64.19 642.55 94.02 593.64C127.83 538.43 171.29 489.91 216.31 443.64C289.06 364.75 340.62 260.23 335.17 150.96C331.5 98.55 314.21 49.02 295.6 0.34Z"/>
    <path fill="#e20626" d="M605.44 450.65C628.88 422.54 659.18 401.43 690.96 383.67C667.44 427.83 646.25 477.37 652.64 528.46C666.81 614.2 721.02 685.7 777.88 748.55C829.37 810.39 882.56 873.94 910.06 950.65C936.54 1029.94 937.94 1121.29 897.05 1195.98C846.34 1291 722.42 1340.22 620.94 1302.76C552.94 1278.07 507.38 1207.74 506.6 1136.25L502.24 1131.03C505.58 1095.2 507.06 1057.82 523.19 1024.87C541.1 982.51 573.97 945.83 577.94 898.32C592.59 800.19 532.61 712.57 526.07 616.77C522.64 551.74 563.07 495.75 605.44 450.65Z"/>
    <path fill="#e20626" d="M4.69 977.91C7.33 976.98 12.63 975.19 15.28 974.25C63.02 1075.03 177.05 1134.69 286.87 1128.07C324.73 1130.72 361.02 1115.53 398.72 1118.33C405.19 1163.27 402.85 1210.47 421.62 1252.76C444.21 1307.82 486.11 1356.73 542.74 1378.22C630.28 1413.43 728.73 1399.95 814.72 1367.01C813.32 1375.5 810.75 1383.83 804.21 1389.91C739.87 1455.48 657.15 1503.69 566.73 1522.07C450.91 1548.08 325.58 1527.29 224.72 1464.59C98.93 1388.66 14.34 1250.11 2.12 1104C-0.07 1061.95 0.4 1019.73 4.69 977.91Z"/>
  </symbol>

  <!-- Chatwoot -->
  <symbol id="chatwoot" viewBox="0 0 512 512">
    <circle cx="256" cy="256" fill="#47A7F6" r="256"/>
    <path d="M362.807947,368.807947 L244.122956,368.807947 C178.699407,368.807947 125.456954,315.561812 125.456954,250.12177 C125.456954,184.703089 178.699407,131.456954 244.124143,131.456954 C309.565494,131.456954 362.807947,184.703089 362.807947,250.12177 L362.807947,368.807947 Z" fill="#FFFFFF" stroke="#FFFFFF" stroke-width="6"/>
  </symbol>

  <!-- ClickUp -->
  <symbol id="clickup" viewBox="0 0 54.8 65.8">
    <defs>
      <linearGradient id="clickup-grad1" x1="0" y1="15.05" x2="54.84" y2="15.05" gradientTransform="matrix(1 0 0 -1 0 69.36)">
        <stop offset="0" stop-color="#8930FD"/>
        <stop offset="1" stop-color="#49CCF9"/>
      </linearGradient>
      <linearGradient id="clickup-grad2" x1="1.2" y1="53.17" x2="53.74" y2="53.17" gradientTransform="matrix(1 0 0 -1 0 69.36)">
        <stop offset="0" stop-color="#FF02F0"/>
        <stop offset="1" stop-color="#FFC800"/>
      </linearGradient>
    </defs>
    <path fill="url(#clickup-grad1)" d="M0,50.6l10.1-7.8c5.4,7,11.1,10.3,17.4,10.3c6.3,0,11.9-3.2,17-10.2l10.3,7.6c-7.4,10-16.6,15.3-27.3,15.3C16.9,65.8,7.6,60.5,0,50.6z"/>
    <path fill="url(#clickup-grad2)" d="M27.5,16.9l-18,15.5l-8.3-9.7L27.6,0l26.2,22.7l-8.4,9.6L27.5,16.9z"/>
  </symbol>

  <!-- Clinicorp -->
  <symbol id="clinicorp" viewBox="0 0 119 12">
    <path fill="#EB6223" d="M13.6179 2.7865C13.613 2.68851 13.6007 2.58397 13.582 2.47781C13.5117 2.07683 13.3419 1.69463 13.092 1.37124C12.6183 0.753028 11.8506 0.372466 11.0683 0.377366H7.66364V3.0168H10.4035C10.7237 3.0168 10.9825 3.27732 10.9825 3.59744V8.40429C10.9858 8.55537 10.9246 8.70073 10.8127 8.8118C10.7032 8.92287 10.5538 8.9833 10.4027 8.9833H7.66282V11.6219H11.0846C11.8523 11.6219 12.6199 11.243 13.0879 10.6297C13.3394 10.3079 13.5093 9.92572 13.5811 9.52311C13.6073 9.37938 13.6203 9.22666 13.6203 9.06905V2.93105C13.6203 2.88287 13.6203 2.8355 13.6171 2.78732L13.6179 2.7865ZM2.5383 0.377366C1.76656 0.377366 0.998901 0.757928 0.529323 1.37124C0.279426 1.69708 0.109561 2.07928 0.0393288 2.47699C0.0123792 2.62562 -0.00150401 2.77834 0.000129305 2.93105V9.06823C-0.00150401 9.22258 0.0123792 9.37529 0.0393288 9.52229C0.109561 9.92327 0.281059 10.3055 0.530956 10.6289C1.00053 11.2422 1.76656 11.6211 2.53585 11.6211H5.95764V8.98248H3.21122C3.06178 8.98248 2.91641 8.92041 2.80698 8.81098C2.69755 8.70155 2.63548 8.55374 2.63875 8.40347V3.59744C2.63875 3.27732 2.89763 3.0168 3.21776 3.0168H5.95764V0.377366H2.5383Z"/>
    <path fill="#fff" d="M68.3896 0.378136C67.7453 0.378136 67.1001 0.659066 66.6208 1.14824C66.1414 1.63742 65.8743 2.2883 65.8882 2.93101V9.06655C65.8743 9.72069 66.1479 10.3773 66.6395 10.8697C67.1197 11.3499 67.7567 11.6227 68.3937 11.6227C68.4092 11.6227 68.4256 11.6227 68.4411 11.6227H77.1319V8.98325H69.1058C68.9507 8.9808 68.8078 8.92282 68.6975 8.81257C68.5873 8.70232 68.5252 8.55369 68.5268 8.40342V3.59658C68.5268 3.27727 68.7873 3.01675 69.1067 3.01675H77.1319V0.377319H68.3896V0.378136Z"/>
    <path fill="#fff" d="M88.7927 0.377319H81.9311C80.5983 0.378953 79.4297 1.55086 79.4297 2.88446V9.11637C79.4297 10.4508 80.6008 11.6219 81.9352 11.6219H88.7984C90.1312 11.6219 91.3006 10.4508 91.3006 9.11473V2.88446C91.2998 1.54922 90.1279 0.377319 88.7927 0.377319ZM88.6604 3.5974V8.40342C88.6604 8.72274 88.3999 8.98243 88.0797 8.98243H82.6473C82.5003 8.98897 82.3501 8.92282 82.2398 8.81257C82.1287 8.70232 82.0667 8.55369 82.0683 8.40342V3.5974C82.0683 3.28788 82.31 3.03309 82.6147 3.01839H88.0797C88.1385 3.01839 88.1973 3.02737 88.2512 3.04289C88.2692 3.0486 88.2863 3.05432 88.2994 3.06004C88.3067 3.0633 88.3133 3.06657 88.3337 3.07555C88.3492 3.0829 88.3639 3.09107 88.3811 3.10169C88.4537 3.14579 88.5134 3.20295 88.5599 3.27319C88.6253 3.36955 88.6604 3.48225 88.6604 3.59658V3.5974Z"/>
    <path fill="#fff" d="M17.819 1.13067C17.3274 1.6223 17.053 2.27971 17.0669 2.93222V9.06695C17.0538 9.70394 17.3152 10.3483 17.7839 10.8358C18.2527 11.3234 18.8864 11.6092 19.5308 11.6206L28.3106 11.6223V8.98283H20.2845C20.1367 8.98038 19.9865 8.9224 19.8762 8.81215C19.766 8.7019 19.7039 8.55327 19.7055 8.403V3.59698C19.7055 3.27766 19.9652 3.01715 20.2854 3.01715H28.3106V0.377716H19.6222C18.9673 0.365466 18.3107 0.637413 17.819 1.12986V1.13067Z"/>
    <path fill="#fff" d="M56.0118 7.11637L49.6737 0.778298L49.6443 0.748898C49.5251 0.63375 49.387 0.543101 49.2319 0.477768C49.218 0.472052 49.2041 0.466335 49.1902 0.460618C49.0424 0.405086 48.8873 0.377319 48.728 0.377319C48.3752 0.377319 48.0436 0.514518 47.7946 0.764415C47.5447 1.01431 47.4075 1.34587 47.4075 1.69785V11.6211H50.0469V4.88282L56.4128 11.2487C56.545 11.3769 56.6986 11.4749 56.8693 11.5386C57.0171 11.5941 57.1722 11.6219 57.3315 11.6219C57.6843 11.6219 58.0158 11.4847 58.2657 11.2348C58.5156 10.9849 58.6528 10.6533 58.6528 10.3005V0.377319H56.0134V7.11637H56.0118Z"/>
    <path fill="#fff" d="M105.067 4.70923C105.132 4.15063 105.132 3.05141 105.067 2.49282C104.999 2.10491 104.833 1.73251 104.591 1.42218C104.134 0.823573 103.392 0.458528 102.639 0.463428H93.6816V11.5365H96.1503V7.97667H102.079C102.395 8.02567 102.642 8.30905 102.639 8.6349V11.5373H105.107V9.20737C105.107 9.05956 105.095 8.91338 105.068 8.76883C104.881 7.62143 103.802 6.71902 102.639 6.73944C102.671 6.73944 102.703 6.7378 102.735 6.7378C103.864 6.71167 104.886 5.82396 105.069 4.71004L105.067 4.70923ZM102.639 4.84398C102.639 5.17554 102.395 5.44994 102.077 5.50057H96.1495V2.93137H101.974C102.332 2.92728 102.644 3.23434 102.639 3.59694V4.84398Z"/>
    <path fill="#fff" d="M63.5926 0.377319H60.9531V11.6219H63.5926V0.377319Z"/>
    <path fill="#fff" d="M45.1101 0.377319H42.4707V11.6219H45.1101V0.377319Z"/>
    <path fill="#fff" d="M33.2474 8.40587V2.93101V0.377319H30.6079V9.06655C30.594 9.72069 30.8676 10.3773 31.3601 10.8697C31.8403 11.3499 32.4773 11.6227 33.1142 11.6227C33.1298 11.6227 33.1461 11.6227 33.1624 11.6227H40.1751V8.98325H33.828C33.5144 8.98325 33.2555 8.72927 33.249 8.40669L33.2474 8.40587Z"/>
    <path fill="#fff" d="M118.996 2.79174C118.969 2.29766 118.789 1.81502 118.486 1.42466C118.486 1.42384 118.485 1.42302 118.484 1.42302C118.028 0.823597 117.285 0.460184 116.532 0.464267H107.575V11.5365H110.043V7.9767H116.585C117.321 7.96608 118.038 7.60348 118.485 7.01957C118.485 7.01957 118.487 7.01794 118.487 7.01631C118.82 6.5892 119.002 6.05102 119 5.50958V2.93139C119 2.88484 119 2.83829 118.996 2.79174H118.996ZM116.532 4.84482C116.536 5.16168 116.287 5.45731 115.971 5.50059H115.971L110.042 5.50141V2.93139H115.867C116.226 2.92731 116.537 3.23437 116.532 3.59696V4.844L116.532 4.84482Z"/>
  </symbol>

  <!-- Docker -->
  <symbol id="docker" viewBox="0 0 1024 1024">
    <circle cx="512" cy="512" r="512" fill="#0091e2"/>
    <path fill="#fff" d="M827.3 461.5c-1.6-1.3-16.1-12.2-46.7-12.2-8.1 0-16.2.6-24.2 2.1-5.9-40.7-39.5-60.5-41-61.4l-8.2-4.8-5.4 7.8c-6.8 10.5-11.7 22-14.6 34.2-5.5 23.2-2.2 45 9.6 63.6-14.2 7.9-37.1 9.9-41.7 10H277c-9.9 0-17.9 8-17.9 17.9-.4 33.1 5.2 66 16.5 97.1 13 34.2 32.4 59.3 57.6 74.7 28.2 17.3 74.1 27.2 126.2 27.2 23.5.1 47-2.1 70.1-6.4 32.1-5.9 63-17.1 91.4-33.2 23.4-13.6 44.5-30.8 62.4-51.1 29.9-33.9 47.8-71.7 61.1-105.2h5.3c32.8 0 53-13.1 64.1-24.1 7.4-7 13.2-15.5 16.9-25l2.3-6.9-5.7-4.3zM312 489.9h50.7c2.4 0 4.4-2 4.4-4.4v-45.1c0-2.4-2-4.4-4.4-4.5H312c-2.4 0-4.4 2-4.4 4.4v45.2c0 2.5 2 4.4 4.4 4.4m69.9 0h50.7c2.4 0 4.4-2 4.4-4.4v-45.1c0-2.4-2-4.4-4.4-4.5h-50.7c-2.5 0-4.5 2-4.5 4.5v45.1c0 2.5 2 4.4 4.5 4.4m70.8.1h50.7c2.4 0 4.4-2 4.4-4.4v-45.1c0-2.4-2-4.4-4.4-4.5h-50.7c-2.4 0-4.4 2-4.4 4.4v45.2c0 2.4 2 4.3 4.4 4.4m70.1 0h50.7c2.4 0 4.4-2 4.5-4.4v-45.1c0-2.5-2-4.5-4.5-4.5h-50.7c-2.4 0-4.4 2-4.4 4.4v45.2c0 2.4 1.9 4.4 4.4 4.4m-141-65h50.7c2.4 0 4.4-2 4.4-4.5v-45.1c0-2.4-2-4.4-4.4-4.4h-50.7c-2.5 0-4.4 2-4.5 4.4v45.1c.1 2.5 2.1 4.5 4.5 4.5m70.9 0h50.7c2.4 0 4.4-2 4.4-4.5v-45.1c0-2.4-2-4.4-4.4-4.4h-50.7c-2.4 0-4.4 2-4.4 4.4v45.1c0 2.5 2 4.5 4.4 4.5m70.1 0h50.7c2.5 0 4.4-2 4.5-4.5v-45.1c0-2.5-2-4.4-4.5-4.4h-50.7c-2.4 0-4.4 2-4.4 4.4v45.1c0 2.5 1.9 4.5 4.4 4.5m0-64.9h50.7c2.5 0 4.5-2 4.5-4.5v-45.2c0-2.4-2-4.4-4.5-4.4h-50.7c-2.4 0-4.4 2-4.4 4.4v45.2c0 2.5 1.9 4.5 4.4 4.5M593.4 490h50.7c2.4 0 4.4-2 4.4-4.4v-45.1c0-2.5-2-4.4-4.4-4.5h-50.7c-2.4 0-4.4 2-4.4 4.4v45.2c0 2.4 2 4.4 4.4 4.4"/>
  </symbol>

  <!-- Hotmart -->
  <symbol id="hotmart" viewBox="0 0 5280 2048">
    <path fill="#fff" d="M1647.8 1440.64V784.686C1647.8 781.402 1650.46 778.74 1653.75 778.74H1779.7C1782.98 778.74 1785.64 781.402 1785.64 784.686V1020.69H1787.46C1820.95 978.707 1871.31 960.021 1926.64 960.021C2025.77 960.021 2058.05 1024.94 2058.05 1110.84V1440.64C2057.99 1443.9 2055.36 1446.53 2052.1 1446.59H1925.67C1922.39 1446.59 1919.72 1443.93 1919.72 1440.64V1122.86C1919.72 1085.73 1880.77 1074.32 1856.02 1074.32C1831.27 1074.32 1785.64 1090.58 1785.64 1137.3V1440.64C1785.64 1443.93 1782.98 1446.59 1779.7 1446.59H1653.75C1652.17 1446.59 1650.66 1445.96 1649.54 1444.85C1648.43 1443.73 1647.8 1442.22 1647.8 1440.64Z"/>
    <path fill="#fff" d="M2653.55 1311.17V1085H2595.55C2592.27 1085 2589.61 1082.34 2589.61 1079.05V997.877C2589.7 995.314 2591.33 993.06 2593.73 992.174L2670.54 969.605L2711.92 840.015C2712.77 837.654 2714.99 836.063 2717.5 836.011H2786.06C2787.64 835.978 2789.18 836.593 2790.3 837.716C2791.42 838.838 2792.04 840.37 2792 841.957V969.605H2893.93C2897.18 969.67 2899.81 972.294 2899.87 975.551V1079.17C2899.81 1082.41 2897.16 1085 2893.93 1085H2792V1296.86C2792 1318.82 2804.14 1332.17 2834.96 1332.17H2893.93C2897.18 1332.23 2899.81 1334.85 2899.87 1338.11V1429.12C2899.84 1431.66 2898.25 1433.92 2895.87 1434.82C2860.2 1448.17 2840.05 1456.17 2798.8 1456.17C2695.3 1456.17 2653.55 1396.11 2653.55 1311.17Z"/>
    <path fill="#fff" d="M4626.18 1311.17V1085H4568.18C4564.9 1085 4562.23 1082.34 4562.23 1079.05V997.877C4562.32 995.314 4563.95 993.06 4566.36 992.174L4643.17 969.605L4684.54 840.015C4685.4 837.654 4687.62 836.063 4690.13 836.011H4758.08C4759.66 835.978 4761.19 836.593 4762.32 837.716C4763.44 838.838 4764.05 840.37 4764.02 841.957V969.605H4865.95C4869.2 969.67 4871.83 972.294 4871.89 975.551V1079.17C4871.83 1082.41 4869.18 1085 4865.95 1085H4763.9V1296.86C4763.9 1318.82 4776.03 1332.17 4806.85 1332.17H4865.82C4869.08 1332.23 4871.71 1334.85 4871.77 1338.11V1429.12C4871.73 1431.66 4870.15 1433.92 4867.77 1434.82C4832.09 1448.17 4811.95 1456.17 4770.69 1456.17C4667.92 1456.17 4626.18 1396.11 4626.18 1311.17Z"/>
    <path fill="#fff" d="M2982.05 1440.77V975.553C2982.05 972.269 2984.71 969.607 2987.99 969.607H3101.57C3104.14 969.662 3106.41 971.305 3107.27 973.733C3107.27 975.796 3120.37 1021.05 3120.37 1021.05H3122.32C3155.68 979.193 3205.31 960.386 3260.64 960.386C3328.35 960.386 3360.99 990.963 3379.19 1037.68H3382.95C3417.05 980.042 3477.72 960.021 3532.81 960.021C3632.06 960.021 3663.73 1024.94 3663.73 1110.85V1440.77C3663.66 1444 3661.02 1446.59 3657.78 1446.59H3531.11C3527.87 1446.59 3525.23 1444 3525.16 1440.77V1125.29C3525.16 1088.03 3489.97 1073.59 3465.22 1073.59C3436.34 1073.59 3393.75 1091.8 3391.81 1134.26V1440.77C3391.81 1442.33 3391.18 1443.83 3390.06 1444.93C3388.94 1446.02 3387.43 1446.62 3385.86 1446.59H3259.31C3256.12 1446.53 3253.55 1443.96 3253.48 1440.77V1125.29C3253.48 1088.03 3216.11 1073.59 3189.05 1073.59C3164.18 1073.59 3120.13 1092.77 3120.13 1139.6V1440.77C3120.07 1443.96 3117.5 1446.53 3114.31 1446.59H2987.99C2984.76 1446.59 2982.11 1444 2982.05 1440.77Z"/>
    <path fill="#fff" fill-rule="evenodd" clip-rule="evenodd" d="M3747.54 987.808V1074.44C3747.57 1076.1 3748.27 1077.67 3749.48 1078.79C3750.7 1079.91 3752.32 1080.49 3753.97 1080.39C3754.35 1080.39 3756.27 1080.27 3759.41 1080.08C3773.94 1079.17 3814.81 1076.63 3853.22 1076.63C3963.88 1076.63 3993 1084.76 3993 1124.31V1155.26H3876.88C3809.05 1155.26 3718.41 1180.13 3718.41 1304.14C3718.41 1386.16 3766.1 1455.81 3855.89 1455.81C3909.11 1455.81 3953.23 1443.8 3987.08 1400.45L3998.71 1442.22C3999.34 1444.84 4001.72 1446.67 4004.41 1446.59H4124.9C4128.14 1446.59 4130.78 1444 4130.85 1440.77V1121.28C4130.85 989.628 4058.77 960.021 3936.7 960.021C3874.67 961.46 3812.91 968.814 3752.27 981.984C3749.58 982.674 3747.66 985.038 3747.54 987.808ZM3916.79 1240.56H3992.51V1278.41C3993.41 1299.08 3985.6 1319.18 3970.97 1333.81C3956.34 1348.43 3936.25 1356.25 3915.58 1355.34C3883.67 1355.34 3850.54 1344.67 3850.54 1298.56C3850.54 1255.97 3876.63 1240.56 3916.79 1240.56Z"/>
    <path fill="#fff" d="M4210.83 1440.76V975.545C4210.9 972.289 4213.52 969.664 4216.78 969.6H4329.38C4332.24 969.609 4334.68 971.647 4335.2 974.453L4348.67 1047.26H4350.49C4380.83 984.767 4443.8 962.319 4497.8 960.499C4499.42 960.433 4500.99 961.03 4502.16 962.152C4503.33 963.275 4503.99 964.825 4503.99 966.445V1095.79C4503.92 1099.05 4501.3 1101.67 4498.04 1101.74H4465.77C4379.01 1101.74 4348.67 1136.56 4348.67 1179.52V1440.76C4348.61 1443.99 4345.96 1446.58 4342.73 1446.58H4216.78C4213.54 1446.58 4210.9 1443.99 4210.83 1440.76Z"/>
    <path fill="#fff" fill-rule="evenodd" clip-rule="evenodd" d="M2343.56 960.021C2175.63 960.021 2116.42 1056.36 2116.42 1208.16C2116.42 1360.44 2174.66 1456.18 2343.56 1456.18C2512.47 1456.18 2571.68 1359.95 2571.68 1208.16C2571.68 1056.36 2511.5 960.021 2343.56 960.021ZM2343.57 1340.54C2277.69 1340.54 2265.55 1290.19 2265.55 1208.16C2265.55 1126.01 2276.23 1076.51 2343.09 1076.51C2409.95 1076.51 2422.08 1126.14 2422.08 1208.16C2422.08 1290.19 2409.46 1340.54 2343.57 1340.54Z"/>
    <path fill="#F04E23" fill-rule="evenodd" clip-rule="evenodd" d="M1241.91 645.024C1350.75 818.66 1395.28 1031 1388.6 1160.84C1388.6 1161.62 1388.63 1162.41 1388.66 1163.2C1388.7 1163.99 1388.73 1164.78 1388.73 1165.57C1386.31 1456.54 1148.48 1690.47 857.504 1688.05C566.531 1685.64 332.606 1447.8 335.018 1156.83C335.018 1149.79 335.383 1140.81 335.747 1135.35C335.869 1133.52 336.046 1131.6 336.227 1129.64C336.585 1125.77 336.96 1121.71 336.96 1117.76C337.819 1107.45 339.286 1094.22 339.855 1089.1C340.089 1086.99 340.171 1086.25 339.993 1087.67C359.893 896.074 464.972 689.798 580.851 568.459C581.923 566.917 584.042 566.537 585.583 567.609C587.125 568.682 587.505 570.8 586.433 572.342C572.236 602.798 542.751 690.283 583.763 693.074C597.475 693.074 604.391 685.065 612.521 668.806C622.266 649.068 631.887 622.38 642.924 591.762C686.168 471.805 751.163 291.509 930.671 232.35C934.19 231.137 938.437 233.078 935.282 238.174C882.406 321.096 881.042 426.808 931.763 511.065C968.408 571.735 1006.63 576.224 1027.5 558.145C1053.34 535.455 1046.67 468.84 1035.51 447.484C1033.69 443.965 1037.57 441.053 1040.85 443.237C1136.55 507.892 1150 589.239 1159.5 646.694C1166.25 687.578 1171.01 716.365 1201.98 718.434C1244.09 721.346 1242.39 673.538 1235.11 646.965C1234.02 642.233 1238.99 640.534 1241.91 645.024ZM617.493 1159.27C616.421 1294.18 724.882 1404.44 859.794 1405.58C924.67 1406.13 987.101 1380.86 1033.33 1335.34C1079.56 1289.81 1105.78 1227.78 1106.23 1162.9C1107.17 1027.99 998.591 917.844 863.678 916.841C728.766 915.839 618.566 1024.36 617.493 1159.27Z"/>
  </symbol>

  <!-- Kiwify -->
  <symbol id="kiwify" viewBox="0 0 1039.53 273.08">
    <path fill="#2db56f" d="M373.08,170.99l31.6,53.23h44.24l-50.07-80.21,47.88-50.31h-42.54l-47.88,49.34V43.87h-37.43v180.35h37.43v-35.49l16.77-17.74ZM483.22,35.36c-11.91,0-20.17,8.75-20.17,20.9s8.26,20.9,20.17,20.9,20.17-8.75,20.17-20.9-8.26-20.9-20.17-20.9ZM501.94,224.22V93.45h-37.43v130.77h37.43ZM694.38,224.22l47.64-130.77h-36.95l-28.68,93.58-28.68-93.58h-36.7l-28.2,93.58-29.17-93.58-38.16.24,47.88,130.53h37.43l27.95-86.29,28.2,86.29h37.43ZM773.59,35.36c-11.91,0-20.17,8.75-20.17,20.9s8.26,20.9,20.17,20.9,20.17-8.75,20.17-20.9-8.26-20.9-20.17-20.9ZM792.3,224.22V93.45h-37.43v130.77h37.43ZM884.37,73.04c5.35,0,11.42,1.94,16.29,5.59l13.37-27.22c-9.24-6.08-22.12-9.24-34.27-9.24-26.25,0-48.13,15.56-48.13,44.72v12.4h-17.5v26.01h17.5v98.93h37.19v-98.93h30.87v-26.01h-30.87v-10.94c0-10.45,6.81-15.31,15.56-15.31ZM1039.53,93.45h-37.43l-30.87,89.93-34.27-89.93h-38.65l54.2,128.1-3.65,7.29c-3.65,7.78-9.48,11.67-17.26,11.67-6.08,0-11.18-2.19-17.01-7.05l-15.8,26.98c10.69,8.75,21.63,12.64,35.49,12.64,22.61,0,38.65-11.18,47.88-34.27l57.36-145.35Z"/>
    <path fill="#2db56f" d="M244.8,197.95c-46.78,46.78-122.89,46.78-169.67,0-46.78-46.78-46.78-122.89,0-169.67L46.85,0c-62.47,62.47-62.47,163.76,0,226.23,62.47,62.47,163.76,62.47,226.23,0l-28.28-28.28Z"/>
    <ellipse fill="#2db56f" cx="200.83" cy="178.35" rx="5.54" ry="12.21" transform="rotate(-27 200.83 178.35)"/>
    <ellipse fill="#2db56f" cx="94.77" cy="82.46" rx="12.21" ry="5.54" transform="rotate(-27 94.77 82.46)"/>
    <ellipse fill="#2db56f" cx="113.96" cy="152.88" rx="15.86" ry="15.86" transform="rotate(-45 113.96 152.88)"/>
    <ellipse fill="#2db56f" cx="152.79" cy="178.02" rx="6.2" ry="22.26" transform="rotate(-81 152.79 178.02)"/>
    <ellipse fill="#2db56f" cx="83.6" cy="119.59" rx="22.26" ry="6.2" transform="rotate(-81 83.6 119.59)"/>
  </symbol>

  <!-- Kommo -->
  <symbol id="kommo" viewBox="0 0 132 28">
    <path fill="currentColor" d="M25.5006 27.9949H20.2462C19.2734 27.9948 18.3152 27.759 17.4534 27.3077C16.5916 26.8563 15.8521 26.2029 15.298 25.4033L11.9992 20.6378L9.41945 16.9118C9.30209 16.7414 9.13326 16.6131 8.93769 16.5457C8.74211 16.4783 8.53008 16.4752 8.33265 16.5371C8.13523 16.5989 7.96279 16.7223 7.84062 16.8893C7.71845 17.0562 7.65296 17.2579 7.65375 17.4648V26.4452C7.65375 26.8562 7.49047 27.2504 7.19984 27.541C6.90921 27.8316 6.51503 27.9949 6.10402 27.9949H1.54974C1.13892 27.9943 0.745099 27.8308 0.454603 27.5403C0.164108 27.2498 0.00062769 26.856 0 26.4452V19.7597C0 18.9694 0.155676 18.1867 0.458138 17.4565C0.760599 16.7263 1.20393 16.0628 1.7628 15.5039C2.32168 14.9451 2.98516 14.5017 3.71537 14.1993C4.44557 13.8968 5.2282 13.7411 6.01857 13.7411H7.2052C7.28172 13.741 7.35708 13.7224 7.42485 13.6869C7.49262 13.6513 7.5508 13.5999 7.59441 13.537L11.9897 7.19808L15.177 2.59397C15.7301 1.79322 16.4694 1.13879 17.3313 0.686947C18.1932 0.235102 19.152 -0.000636831 20.1252 1.29206e-06H25.3748C25.4613 9.14672e-06 25.546 0.0236023 25.62 0.0682411C25.694 0.11288 25.7544 0.176873 25.7947 0.253311C25.835 0.329749 25.8536 0.415735 25.8487 0.502C25.8437 0.588266 25.8152 0.671536 25.7664 0.742831L18.0747 11.852C17.654 12.4584 17.4285 13.1788 17.4285 13.9168C17.4285 14.6548 17.654 15.3752 18.0747 15.9815L25.9017 27.2497C25.9517 27.3217 25.9807 27.4061 25.9857 27.4936C25.9906 27.5811 25.9713 27.6682 25.9298 27.7453C25.8882 27.8225 25.8262 27.8867 25.7504 27.9307C25.6747 27.9748 25.5882 27.997 25.5006 27.9949Z"/>
    <path fill="currentColor" d="M76.4482 27.4712H69.9313V15.5527C69.9313 15.0007 69.712 14.4713 69.3216 14.081C68.9313 13.6906 68.4019 13.4714 67.8499 13.4714C67.2979 13.4714 66.7685 13.6906 66.3782 14.081C65.9879 14.4713 65.7686 15.0007 65.7686 15.5527V27.4617H59.2635V27.0606C59.2635 25.0528 59.2635 19.8696 59.2635 16.642C59.2622 16.2822 59.1901 15.9261 59.0511 15.5941C58.9122 15.2622 58.7092 14.9608 58.4538 14.7074C58.1983 14.4539 57.8954 14.2533 57.5624 14.1169C57.2294 13.9806 56.8727 13.9112 56.5129 13.9128H55.0889V27.4712H48.5957V7.61179H48.9398C51.4033 7.61179 53.8667 7.63552 56.3301 7.61179C58.7034 7.58331 60.818 8.18611 62.5006 9.95894C62.7735 9.70262 63.0322 9.43682 63.3146 9.1995C64.4229 8.26444 65.6452 7.53822 67.0952 7.26767C70.8663 6.54145 75.0836 9.00963 76.1444 12.6051C76.3416 13.2774 76.443 13.974 76.4458 14.6746C76.4482 18.861 76.4482 27.3834 76.4482 27.4712Z"/>
    <path fill="currentColor" d="M108.206 27.4712H101.689V15.5527C101.699 15.2736 101.652 14.9955 101.552 14.7349C101.451 14.4743 101.3 14.2365 101.105 14.0358C100.911 13.835 100.679 13.6753 100.422 13.5663C100.165 13.4573 99.8883 13.4011 99.609 13.4011C99.3298 13.4011 99.0534 13.4573 98.7963 13.5663C98.5393 13.6753 98.3068 13.835 98.1127 14.0358C97.9186 14.2365 97.7669 14.4743 97.6666 14.7349C97.5663 14.9955 97.5195 15.2736 97.5289 15.5527V27.4617H91.0143V27.0606C91.0143 25.0528 91.0143 19.8696 91.0143 16.642C91.0143 15.9157 90.7258 15.2191 90.2122 14.7054C89.6985 14.1918 89.0019 13.9033 88.2756 13.9033H86.8516V27.4617H80.3418V7.61179H80.6859C83.1493 7.61179 85.6128 7.63552 88.0762 7.61179C90.4495 7.58331 92.564 8.18611 94.2467 9.95894C94.5196 9.70262 94.7783 9.43682 95.0607 9.1995C96.169 8.26444 97.3912 7.53822 98.8413 7.26767C102.612 6.54145 106.83 9.00963 107.891 12.6051C108.087 13.2775 108.188 13.9741 108.19 14.6746L108.206 27.4712Z"/>
    <path fill="currentColor" d="M25.0939 17.5837C25.0939 12.6331 28.7677 8.16427 33.6519 7.336C37.5013 6.68335 40.6743 8.04798 43.1449 11.0027C44.0408 12.0377 44.7138 13.2462 45.1222 14.5528C45.5305 15.8594 45.6653 17.2361 45.5182 18.5971C45.2571 21.2931 44.0396 23.5335 42.0532 25.3443C40.1546 27.0839 37.8858 28.0284 35.2871 27.9928C31.853 27.9406 29.1593 26.4099 27.1302 23.6877C25.7934 21.9351 25.077 19.7879 25.0939 17.5837ZM31.3688 17.5837C31.3699 18.2784 31.5324 18.9633 31.8435 19.5844C32.0996 20.1558 32.492 20.6557 32.9864 21.04C33.4808 21.4244 34.062 21.6815 34.6789 21.7888C35.2959 21.8961 35.9297 21.8503 36.5249 21.6555C37.12 21.4607 37.6582 21.1227 38.0922 20.6713C38.7581 19.9467 39.1694 19.0246 39.2636 18.0451C39.3579 17.0655 39.1299 16.0819 38.6144 15.2437C38.1154 14.3776 37.2939 13.7441 36.3294 13.4818C35.3649 13.2194 34.3357 13.3494 33.4668 13.8435C32.0428 14.6575 31.459 15.9889 31.3593 17.5742L31.3688 17.5837Z"/>
    <path fill="currentColor" d="M131.72 17.1733C131.732 22.6982 127.79 27.2762 122.737 27.9123C119.235 28.3537 116.313 27.1125 113.956 24.5304C112.464 22.9349 111.534 20.8957 111.308 18.723C110.997 15.7469 111.866 13.1221 113.778 10.8462C115.318 8.94289 117.511 7.68001 119.93 7.30291C123.051 6.80927 125.804 7.68975 128.137 9.78059C130.47 11.8714 131.666 14.4583 131.72 17.1733ZM125.441 17.5862C125.438 16.9157 125.287 16.2542 124.997 15.6497C123.677 12.8231 120.431 12.8445 118.926 14.3301C118.331 14.8777 117.9 15.5796 117.681 16.3577C117.461 17.1358 117.462 17.9595 117.682 18.7372C118.278 21.0891 120.53 22.3588 122.73 21.6279C124.304 21.1081 125.441 19.4113 125.441 17.5862Z"/>
  </symbol>

  <!-- Mautic -->
  <symbol id="mautic" viewBox="0 0 349.779 349.779">
    <path fill="#FFFFFF" d="M174.89,349.779C78.612,349.779,0,271.462,0,174.89S78.612,0,174.89,0c23.26,0,45.931,4.417,67.129,13.543c5.889,2.65,8.833,9.422,6.478,15.605c-2.649,5.888-9.421,8.833-15.604,6.477c-18.549-7.655-37.98-11.482-58.002-11.482c-83.323,0-151.041,67.718-151.041,151.041S91.567,326.225,174.89,326.225c83.323,0,151.041-67.718,151.041-151.041c0-17.96-2.944-35.332-9.127-51.819c-2.355-6.183,0.883-12.955,7.066-15.31c6.183-2.355,12.954,0.883,15.31,7.066c7.066,19.138,10.6,39.453,10.6,60.063C349.779,271.167,271.462,349.779,174.89,349.779"/>
    <polygon fill="#FDB933" points="251.44,156.93 224.354,185.194 239.369,248.496 273.522,248.496"/>
    <polygon fill="#FDB933" points="240.253,73.312 249.674,82.734 174.89,161.935 110.999,96.277 74.196,248.496 108.35,248.496 128.665,163.996 174.89,214.343 273.817,106.583 283.239,116.299 292.66,63.007"/>
  </symbol>


  <!-- n8n -->
  <symbol id="n8n" viewBox="0 0 500 200">
    <path fill="#fff" d="M239,83c-11.183,0-20.58-7.649-23.244-18h-27.508c-5.866,0-10.872,4.241-11.836,10.027l-0.987,5.919c-0.936,5.619-3.779,10.509-7.799,14.054c4.02,3.545,6.863,8.435,7.799,14.054l0.987,5.919c0.964,5.786,5.97,10.027,11.836,10.027h3.508c2.664-10.351,12.061-18,23.244-18c13.255,0,24,10.745,24,24c0,13.255-10.745,24-24,24c-11.183,0-20.58-7.649-23.244-18h-3.508c-11.732,0-21.744-8.482-23.673-20.054l-0.987-5.919c-0.964-5.786-5.97-10.027-11.836-10.027h-9.508c-2.664,10.351-12.061,18-23.244,18c-11.183,0-20.58-7.649-23.244-18h-13.512c-2.664,10.351-12.061,18-23.244,18c-13.2548,0-24-10.745-24-24c0-13.255,10.7452-24,24-24c11.183,0,20.58,7.649,23.244,18h13.512c2.664-10.351,12.061-18,23.244-18c11.183,0,20.58,7.649,23.244,18h9.508c5.866,0,10.872-4.241,11.836-10.027l0.987-5.919c1.929-11.572,11.941-20.054,23.673-20.054h27.508c2.664-10.351,12.061-18,23.244-18c13.255,0,24,10.745,24,24c0,13.255-10.745,24-24,24zm0-12c6.627,0,12-5.373,12-12c0-6.627-5.373-12-12-12c-6.627,0-12,5.373-12,12c0,6.627,5.373,12,12,12zm-180,36c6.627,0,12-5.373,12-12c0-6.627-5.373-12-12-12c-6.6274,0-12,5.373-12,12c0,6.627,5.3726,12,12,12zm72-12c0,6.627-5.373,12-12,12c-6.627,0-12-5.373-12-12c0-6.627,5.373-12,12-12c6.627,0,12,5.373,12,12zm96,36c0,6.627-5.373,12-12,12c-6.627,0-12-5.373-12-12c0-6.627,5.373-12,12-12c6.627,0,12,5.373,12,12z" clip-rule="evenodd" fill-rule="evenodd"/>
    <path fill="#fff" d="M407.017,86.887v-0.571c4.187-2.097,8.374-5.719,8.374-12.867c0-10.294-8.469-16.489-20.173-16.489c-11.99,0-20.554,6.576-20.554,16.679c0,6.863,3.996,10.58,8.374,12.677v0.571c-4.853,1.716-10.658,6.863-10.658,15.441c0,10.388,8.564,17.632,22.743,17.632c14.178,0,22.457-7.244,22.457-17.632c0-8.578-5.71-13.63-10.563-15.441zm-11.894-21.158c4.758,0,8.278,3.049,8.278,8.196c0,5.147-3.616,8.197-8.278,8.197c-4.663,0-8.565-3.05-8.565-8.197c0-5.242,3.712-8.196,8.565-8.196zm0,45.081c-5.52,0-9.992-3.526-9.992-9.531c0-5.432,3.711-9.531,9.896-9.531c6.091,0,9.802,4.003,9.802,9.722c0,5.814-4.282,9.34-9.706,9.34z" clip-rule="evenodd" fill-rule="evenodd"/>
    <path fill="#fff" d="M432.26,119.007h12.18v-25.829c0-8.483,5.139-12.2,10.943-12.2c5.71,0,10.182,3.813,10.182,11.628v26.401h12.18v-28.879c0-12.486-7.232-19.729-18.555-19.729c-7.137,0-11.134,2.859-13.989,6.576h-0.761l-1.047-5.623h-11.133v47.655z"/>
    <path fill="#fff" d="M324.44,119.007h-12.18v-47.655h11.133l1.047,5.623h0.761c2.855-3.717,6.852-6.576,13.989-6.576c11.323,0,18.555,7.243,18.555,19.729v28.879h-12.18v-26.401c0-7.815-4.472-11.628-10.182-11.628c-5.804,0-10.943,3.717-10.943,12.2v25.829z"/>
  </symbol>

  <!-- Pipedrive -->
  <symbol id="pipedrive" viewBox="0 0 755.8 253.2">
    <g fill="#fff">
      <path d="M128.3,87.8c-11.9,0-18.8,5.4-22.1,9c-0.4-3.2-2.5-7.3-10.7-7.3H77.6v18.6h7.3c1.2,0,1.6,0.4,1.6,1.6v85.1h21.2v-31.8v-2.4c3.3,3,9.6,7.2,19.5,7.2c20.7,0,35.2-16.4,35.2-40C162.5,104,148.6,87.8,128.3,87.8M124,149.3c-11.4,0-16.6-10.9-16.6-21.1c0-16,8.7-21.7,16.9-21.7c10,0,16.8,8.6,16.8,21.5C141.1,142.9,132.4,149.3,124,149.3"/>
      <path d="M191,146v-45.1c0-7.6-3.7-11.3-11.2-11.3h-19v18.6h7.3c1.2,0,1.6,0.4,1.6,1.6v44.9c0,7.7,3.6,11.3,11.2,11.3h19v-18.5h-7.3C191.5,147.6,191,147.1,191,146"/>
      <path d="M246.4,87.8c-11.9,0-18.8,5.4-22.2,9c-0.4-3.2-2.5-7.3-10.7-7.3h-17.8v18.6h7.3c1.2,0,1.6,0.4,1.6,1.6v85.1h21.4v-31.8v-2.4c3.3,3,9.7,7.2,19.5,7.2c20.7,0,35.2-16.4,35.2-40C280.6,104,266.8,87.8,246.4,87.8M242.1,149.3c-11.4,0-16.6-10.9-16.6-21.1c0-16,8.7-21.7,16.9-21.7c10,0,16.8,8.6,16.8,21.5C259.2,142.9,250.5,149.3,242.1,149.3"/>
      <path d="M320.6,87.8c-22.9,0-38.8,16.5-38.8,40c0,23.2,17.2,40,41,40c18.7,0,30.1-11.1,30.6-11.5l0.9-0.8l-9.2-15.3l-1.4,1.3c-0.1,0.1-8.5,7.8-19.6,7.8c-10.6,0-18.4-6.5-20.3-16.7h50.3l0.1-1.4c0-0.2,0.5-4.7,0.5-6.9C354.7,102.6,341.1,87.8,320.6,87.8M304.5,116.8c2.3-7.5,8.1-11.8,16-11.8c6.4,0,11.3,4.9,12.2,11.8H304.5z"/>
      <path d="M431.9,146V72.1c0-7.6-3.7-11.3-11.3-11.3h-19v18.6h7.3c1.2,0,1.6,0.4,1.6,1.6v13.4c-3.1-2.8-9.2-6.5-19.8-6.5c-20.6,0-35,16.5-35,40c0,23.9,13.8,40,34.2,40c11.7,0,18.5-5.4,21.8-9.2c0.4,3.3,2.6,7.5,10.5,7.5h18.4v-18.5h-7.1C432.4,147.7,431.9,147.1,431.9,146M394,149.3c-10.1,0-16.6-8.4-16.6-21.5c0-12.7,6.8-21.2,16.9-21.2c11.5,0,16.6,10.6,16.6,21.1C410.9,143.7,402.2,149.3,394,149.3"/>
      <path d="M487.9,88.5c-8.8,0-17,5.1-21.8,13.2v-1.7c0-6.9-3.8-10.5-11.3-10.5h-18.2v18.6h7.3c1.2,0,1.6,0.4,1.6,1.6v56.3h21.2v-30.6c0-4,0.5-7.9,1.5-11.5c3.2-10.6,11.7-14.3,18.5-14.3c2.4,0,4.2,0.3,4.2,0.3l1.8,0.3v-21.1l-1.3-0.2C491.4,88.8,489.6,88.5,487.9,88.5"/>
      <path d="M522.9,146v-45.1c0-7.6-3.7-11.3-11.2-11.3h-17.2v18.6h5.5c1.2,0,1.6,0.4,1.6,1.6v44.9c0,7.7,3.6,11.3,11.2,11.3h19v-18.5h-7.3C523.4,147.6,522.9,147.1,522.9,146"/>
      <path d="M603,89.6h-11.3c-6.6,0-10.2,2.3-12.3,7.9l-13.8,38.6c-0.5,1.4-0.9,3-1.3,4.6c-0.4-1.5-0.9-3.2-1.4-4.6l-13.8-38.6c-2.1-5.7-5.5-7.9-12.3-7.9h-12v18.6h3.1c1.7,0,2.2,0.6,2.6,1.6l21.4,56.3h23.9l21.4-56.3c0.4-1,0.9-1.6,2.6-1.6h3.3V89.6z"/>
      <path d="M639.6,87.8c-22.9,0-38.8,16.5-38.8,40c0,23.2,17.2,40,41,40c18.7,0,30.1-11.1,30.6-11.5l0.9-0.8l-9.2-15.3l-1.4,1.3c-0.1,0.1-8.5,7.8-19.5,7.8c-10.6,0-18.4-6.5-20.3-16.7h50.3l0.1-1.4c0-0.2,0.4-4.7,0.4-6.9C673.7,102.6,660.1,87.8,639.6,87.8M623.7,116.8c2.3-7.5,8.1-11.8,16-11.8c6.4,0,11.3,4.9,12.2,11.8H623.7z"/>
      <rect x="170.6" y="60.7" width="18.9" height="19.9"/>
      <rect x="502.6" y="60.7" width="18.9" height="19.9"/>
    </g>
  </symbol>

  <!-- Portainer -->
  <symbol id="portainer" viewBox="0 0 128 128">
    <path fill="#3BBCED" d="M49.32,29.44h-1.88v9.75h1.88V29.44z M57.41,29.44h-1.88v9.75h1.88V29.44z M68.47,10.84L66.54,7.5L34.36,26.1l1.93,3.34L68.47,10.84z"/>
    <path fill="#3BBCED" d="M68.28,10.84l1.93-3.34l32.18,18.6l-1.93,3.34L68.28,10.84z"/>
    <path fill="#3BBCED" d="M108.08,29.49v-3.86H19.92v3.86H108.08z"/>
    <path fill="#3BBCED" d="M73.17,84.01V26.8h3.86v59.98C76,85.61,74.68,84.76,73.17,84.01z M66.59,83.02V2.32h3.86v81.17C69.36,82.97,66.73,83.02,66.59,83.02z M30.04,91.07c-4.7-3.48-7.81-9.04-7.81-15.35c0-3.34,0.89-6.64,2.54-9.51H57.7c1.69,2.87,2.54,6.17,2.54,9.51c0,2.92-0.38,5.65-1.55,8.1c-2.49-2.4-6.16-3.44-9.88-3.44c-6.59,0-12.23,4.1-13.69,10.22c-0.52-0.05-0.85-0.09-1.36-0.09C32.48,90.55,31.26,90.74,30.04,91.07L30.04,91.07z"/>
    <path fill="#3BBCED" d="M46.22,43.52h-9.97v10.03h9.97V43.52z M34.97,43.52H25v10.03h9.97V43.52z M34.97,54.68H25v10.03h9.97V54.68z M46.22,54.68h-9.97v10.03h9.97V54.68z M57.41,54.68h-9.97v10.03h9.97V54.68z M57.41,38.15h-9.97v10.03h9.97V38.15z"/>
    <path fill="#3BBCED" d="M36.76,92.58c1.36-5.79,6.59-10.12,12.8-10.12c4,0,7.57,1.79,10.02,4.62c2.12-1.46,4.66-2.31,7.43-2.31c7.24,0,13.12,5.88,13.12,13.14c0,1.51-0.23,2.92-0.7,4.28c1.6,2.17,2.59,4.9,2.59,7.82c0,7.25-5.88,13.14-13.13,13.14c-3.2,0-6.12-1.13-8.37-3.01c-2.4,3.34-6.3,5.56-10.73,5.56c-5.08,0-9.5-2.92-11.71-7.16c-0.89,0.19-1.79,0.28-2.73,0.28c-7.24,0-13.17-5.89-13.17-13.14s5.88-13.14,13.17-13.14C35.82,92.49,36.29,92.49,36.76,92.58L36.76,92.58z"/>
  </symbol>

  <!-- PostgreSQL -->
  <symbol id="postgresql" viewBox="0 0 432.071 445.383">
    <path fill="#336791" d="M402.395,271.23c-50.302,10.376-53.76-6.655-53.76-6.655c53.111-78.808,75.313-178.843,56.153-203.326c-52.27-66.785-142.752-35.2-144.262-34.38l-0.486,0.087c-9.938-2.063-21.06-3.292-33.56-3.496c-22.761-0.373-40.026,5.967-53.127,15.902c0,0-161.411-66.495-153.904,83.63c1.597,31.938,45.776,241.657,98.471,178.312c19.26-23.163,37.869-42.748,37.869-42.748c9.243,6.14,20.308,9.272,31.908,8.147l0.901-0.765c-0.28,2.876-0.152,5.689,0.361,9.019c-13.575,15.167-9.586,17.83-36.723,23.416c-27.459,5.659-11.328,15.734-0.796,18.367c12.768,3.193,42.307,7.716,62.266-20.224l-0.796,3.188c5.319,4.26,9.054,27.711,8.428,48.969c-0.626,21.259-1.044,35.854,3.147,47.254c4.191,11.4,8.368,37.05,44.042,29.406c29.809-6.388,45.256-22.942,47.405-50.555c1.525-19.631,4.976-16.729,5.194-34.28l2.768-8.309c3.192-26.611,0.507-35.196,18.872-31.203l4.463,0.392c13.517,0.615,31.208-2.174,41.591-7c22.358-10.376,35.618-27.7,13.573-23.148z"/>
    <path fill="none" stroke="#FFFFFF" stroke-width="12.4651" stroke-linecap="round" stroke-linejoin="round" d="M215.866,286.484c-1.385,49.516,0.348,99.377,5.193,111.495c4.848,12.118,15.223,35.688,50.9,28.045c29.806-6.39,40.651-18.756,45.357-46.051c3.466-20.082,10.148-75.854,11.005-87.281"/>
    <path fill="none" stroke="#FFFFFF" stroke-width="12.4651" stroke-linecap="round" stroke-linejoin="round" d="M173.104,38.256c0,0-161.521-66.016-154.012,84.109c1.597,31.938,45.779,241.664,98.473,178.316c19.256-23.166,36.671-41.335,36.671-41.335"/>
    <path fill="none" stroke="#FFFFFF" stroke-width="12.4651" stroke-linecap="round" stroke-linejoin="round" d="M260.349,26.207c-5.591,1.753,89.848-34.889,144.087,34.417c19.159,24.484-3.043,124.519-56.153,203.329"/>
    <path fill="none" stroke="#FFFFFF" stroke-width="12.4651" stroke-linecap="round" stroke-linejoin="bevel" d="M348.282,263.953c0,0,3.461,17.036,53.764,6.653c22.04-4.552,8.776,12.774-13.577,23.155c-18.345,8.514-59.474,10.696-60.146-1.069c-1.729-30.355,21.647-21.133,19.96-28.739c-1.525-6.85-11.979-13.573-18.894-30.338c-6.037-14.633-82.796-126.849,21.287-110.183c3.813-0.789-27.146-99.002-124.553-100.599c-97.385-1.597-94.19,119.762-94.19,119.762"/>
    <path fill="none" stroke="#FFFFFF" stroke-width="12.4651" stroke-linecap="round" stroke-linejoin="round" d="M188.604,274.334c-13.577,15.166-9.584,17.829-36.723,23.417c-27.459,5.66-11.326,15.733-0.797,18.365c12.768,3.195,42.307,7.718,62.266-20.229c6.078-8.509-0.036-22.086-8.385-25.547c-4.034-1.671-9.428-3.765-16.361,3.994z"/>
    <path fill="none" stroke="#FFFFFF" stroke-width="12.4651" stroke-linecap="round" stroke-linejoin="round" d="M187.715,274.069c-1.368-8.917,2.93-19.528,7.536-31.942c6.922-18.626,22.893-37.255,10.117-96.339c-9.523-44.029-73.396-9.163-73.436-3.193c-0.039,5.968,2.889,30.26-1.067,58.548c-5.162,36.913,23.488,68.132,56.479,64.938"/>
    <ellipse fill="#FFFFFF" cx="176.495" cy="141.7" rx="8.976" ry="6.811" transform="rotate(-4)"/>
    <ellipse fill="#FFFFFF" cx="331.943" cy="137.543" rx="8.976" ry="6.811" transform="rotate(4)"/>
    <path fill="none" stroke="#FFFFFF" stroke-width="12.4651" stroke-linecap="round" stroke-linejoin="round" d="M350.676,123.432c0.863,15.994-3.445,26.888-3.988,43.914c-0.804,24.748,11.799,53.074-7.191,81.435"/>
  </symbol>

  <!-- Python -->
  <symbol id="python" viewBox="0.21 -0.077 110 110">
    <defs>
      <linearGradient id="python-grad1" x1="63.82" y1="56.68" x2="118.49" y2="1.82" gradientTransform="matrix(1 0 0 -1 -53.3 66.43)">
        <stop offset="0" stop-color="#387EB8"/>
        <stop offset="1" stop-color="#366994"/>
      </linearGradient>
      <linearGradient id="python-grad2" x1="97.04" y1="21.63" x2="155.67" y2="-34.53" gradientTransform="matrix(1 0 0 -1 -53.3 66.43)">
        <stop offset="0" stop-color="#FFE052"/>
        <stop offset="1" stop-color="#FFC331"/>
      </linearGradient>
    </defs>
    <path fill="url(#python-grad1)" d="M55.023-0.077c-25.971,0-26.25,10.081-26.25,12.156c0,3.148,0,12.594,0,12.594h26.75v3.781c0,0-27.852,0-37.375,0c-7.949,0-17.938,4.833-17.938,26.25c0,19.673,7.792,27.281,15.656,27.281c2.335,0,9.344,0,9.344,0s0-9.765,0-13.125c0-5.491,2.721-15.656,15.406-15.656c15.91,0,19.971,0,26.531,0c3.902,0,14.906-1.696,14.906-14.406c0-13.452,0-17.89,0-24.219C82.054,11.426,81.515-0.077,55.023-0.077z M40.273,8.392c2.662,0,4.813,2.15,4.813,4.813c0,2.661-2.151,4.813-4.813,4.813s-4.813-2.151-4.813-4.813C35.46,10.542,37.611,8.392,40.273,8.392z"/>
    <path fill="url(#python-grad2)" d="M55.397,109.923c25.959,0,26.282-10.271,26.282-12.156c0-3.148,0-12.594,0-12.594H54.897v-3.781c0,0,28.032,0,37.375,0c8.009,0,17.938-4.954,17.938-26.25c0-23.322-10.538-27.281-15.656-27.281c-2.336,0-9.344,0-9.344,0s0,10.216,0,13.125c0,5.491-2.631,15.656-15.406,15.656c-15.91,0-19.476,0-26.532,0c-3.892,0-14.906,1.896-14.906,14.406c0,14.475,0,18.265,0,24.219C28.366,100.497,31.562,109.923,55.397,109.923z M70.148,101.454c-2.662,0-4.813-2.151-4.813-4.813s2.15-4.813,4.813-4.813c2.661,0,4.813,2.151,4.813,4.813S72.809,101.454,70.148,101.454z"/>
  </symbol>

  <!-- RabbitMQ -->
  <symbol id="rabbitmq" viewBox="-7.5 0 271 271">
    <path fill="#F60" d="M245.44 108.308h-85.09a7.738 7.738 0 0 1-7.735-7.734v-88.68C152.615 5.327 147.29 0 140.726 0h-30.375c-6.568 0-11.89 5.327-11.89 11.894v88.143c0 4.573-3.697 8.29-8.27 8.31l-27.885.133c-4.612.025-8.359-3.717-8.35-8.325l.173-88.241C54.144 5.337 48.817 0 42.24 0H11.89C5.321 0 0 5.327 0 11.894V260.21c0 5.834 4.726 10.56 10.555 10.56H245.44c5.834 0 10.56-4.726 10.56-10.56V118.868c0-5.834-4.726-10.56-10.56-10.56zm-39.902 93.233c0 7.645-6.198 13.844-13.843 13.844H167.69c-7.646 0-13.844-6.199-13.844-13.844v-24.005c0-7.646 6.198-13.844 13.844-13.844h24.005c7.645 0 13.843 6.198 13.843 13.844v24.005z"/>
  </symbol>

  <!-- RD Station -->
  <symbol id="rdstation" viewBox="0 0 53 53">
    <path stroke="#000000" stroke-width="0.3464" d="M26.5,38.3L26.5,38.3h-0.1L0.2,48v-8.4l26.3-9.7l26.3,9.7V48L26.5,38.3z"/>
    <path fill="#19C1CE" d="M26.5,38.5L0,48.3L9.8,53l16.7-6.2L43.2,53l9.8-4.7L26.5,38.5z"/>
    <path stroke="#000000" stroke-width="0.3464" d="M26.4,14.7L26.4,14.7h0.1L52.8,5v8.4l-26.3,9.7L0.2,13.4V5L26.4,14.7z"/>
    <path fill="#19C1CE" d="M26.5,14.5L53,4.7L43.2,0L26.5,6.2L9.8,0L0,4.7L26.5,14.5z"/>
  </symbol>

  <!-- Slack -->
  <symbol id="slack" viewBox="0 0 498 127">
    <path fill="#fff" d="M159.5 99.5l6.2-14.4c6.7 5 15.6 7.6 24.4 7.6 6.5 0 10.6-2.5 10.6-6.3-.1-10.6-38.9-2.3-39.2-28.9-.1-13.5 11.9-23.9 28.9-23.9 10.1 0 20.2 2.5 27.4 8.2L212 56.5c-6.6-4.2-14.8-7.2-22.6-7.2-5.3 0-8.8 2.5-8.8 5.7.1 10.4 39.2 4.7 39.6 30.1 0 13.8-11.7 23.5-28.5 23.5-12.3 0-23.6-2.9-32.2-9.1m237.9-19.6c-3.1 5.4-8.9 9.1-15.6 9.1-9.9 0-17.9-8-17.9-17.9 0-9.9 8-17.9 17.9-17.9 6.7 0 12.5 3.7 15.6 9.1l17.1-9.5c-6.4-11.4-18.7-19.2-32.7-19.2-20.7 0-37.5 16.8-37.5 37.5s16.8 37.5 37.5 37.5c14.1 0 26.3-7.7 32.7-19.2l-17.1-9.5zM228.8 2.5h21.4v104.7h-21.4zm194.1 0v104.7h21.4V75.8l25.4 31.4h27.4l-32.3-37.3 29.9-34.8h-26.2L444.3 64V2.5zM313.8 80.1c-3.1 5.1-9.5 8.9-16.7 8.9-9.9 0-17.9-8-17.9-17.9 0-9.9 8-17.9 17.9-17.9 7.2 0 13.6 4 16.7 9.2v17.7zm0-45v8.5c-3.5-5.9-12.2-10-21.3-10-18.8 0-33.6 16.6-33.6 37.4 0 20.8 14.8 37.6 33.6 37.6 9.1 0 17.8-4.1 21.3-10v8.5h21.4v-72h-21.4z"/>
    <path fill="#E01E5A" d="M27.2 80c0 7.3-5.9 13.2-13.2 13.2C6.7 93.2.8 87.3.8 80c0-7.3 5.9-13.2 13.2-13.2h13.2V80zm6.6 0c0-7.3 5.9-13.2 13.2-13.2 7.3 0 13.2 5.9 13.2 13.2v33c0 7.3-5.9 13.2-13.2 13.2-7.3 0-13.2-5.9-13.2-13.2V80z"/>
    <path fill="#36C5F0" d="M47 27c-7.3 0-13.2-5.9-13.2-13.2C33.8 6.5 39.7.6 47 .6c7.3 0 13.2 5.9 13.2 13.2V27H47zm0 6.7c7.3 0 13.2 5.9 13.2 13.2 0 7.3-5.9 13.2-13.2 13.2H13.9C6.6 60.1.7 54.2.7 46.9c0-7.3 5.9-13.2 13.2-13.2H47z"/>
    <path fill="#2EB67D" d="M99.9 46.9c0-7.3 5.9-13.2 13.2-13.2 7.3 0 13.2 5.9 13.2 13.2 0 7.3-5.9 13.2-13.2 13.2H99.9V46.9zm-6.6 0c0 7.3-5.9 13.2-13.2 13.2-7.3 0-13.2-5.9-13.2-13.2V13.8C66.9 6.5 72.8.6 80.1.6c7.3 0 13.2 5.9 13.2 13.2v33.1z"/>
    <path fill="#ECB22E" d="M80.1 99.8c7.3 0 13.2 5.9 13.2 13.2 0 7.3-5.9 13.2-13.2 13.2-7.3 0-13.2-5.9-13.2-13.2V99.8h13.2zm0-6.6c-7.3 0-13.2-5.9-13.2-13.2 0-7.3 5.9-13.2 13.2-13.2h33.1c7.3 0 13.2 5.9 13.2 13.2 0 7.3-5.9 13.2-13.2 13.2H80.1z"/>
  </symbol>

  <!-- Supabase -->
  <symbol id="supabase" viewBox="0 0 109 113">
    <defs>
      <linearGradient id="supabase-grad1" x1="53.97" y1="54.97" x2="94.16" y2="71.83">
        <stop offset="0" stop-color="#249361"/>
        <stop offset="1" stop-color="#3ECF8E"/>
      </linearGradient>
    </defs>
    <path fill="url(#supabase-grad1)" d="M63.7076 110.284C60.8481 113.885 55.0502 111.912 54.9813 107.314L53.9738 40.0627L99.1935 40.0627C107.384 40.0627 111.952 49.5228 106.859 55.9374L63.7076 110.284Z"/>
    <path fill="#3ECF8E" d="M45.317 2.07103C48.1765 -1.53037 53.9745 0.442937 54.0434 5.041L54.4849 72.2922H9.83113C1.64038 72.2922 -2.92775 62.8321 2.1655 56.4175L45.317 2.07103Z"/>
  </symbol>

  <!-- Vapi -->
  <symbol id="vapi" viewBox="0 0 1080 1080">
    <rect width="1080" height="1080" fill="#000714"/>
    <path fill="#62F6B5" fill-rule="evenodd" clip-rule="evenodd" d="M220.528 447.656C238.625 438.892 260.416 446.425 269.2 464.482L294.681 516.864L320.576 464.315C329.451 446.304 351.28 438.881 369.333 447.737C387.385 456.592 394.824 478.372 385.949 496.384L327.157 615.693C321.016 628.154 308.295 636.035 294.377 636C280.46 635.964 267.779 628.019 261.702 615.527L203.664 496.218C194.88 478.161 202.431 456.419 220.528 447.656ZM480.872 444.008C494.788 444.044 507.47 451.989 513.548 464.482L571.584 583.79C577.064 595.053 576.346 608.336 569.688 618.946C563.028 629.556 551.364 636 538.818 636H421.987C409.406 636 397.717 629.523 391.067 618.868C384.417 608.213 383.749 594.889 389.3 583.625L448.092 464.315C454.232 451.854 466.955 443.973 480.872 444.008ZM613.727 480.349C613.727 460.279 630.032 444.008 650.15 444.008H701.694C702.703 444.008 703.716 444.05 704.722 444.134L719.21 445.341C723.56 445.704 731.263 446.74 739.363 451.013C781.551 473.266 781.551 534.059 739.363 556.313C731.263 560.585 723.56 561.622 719.21 561.985L704.722 563.191C703.716 563.275 702.703 563.317 701.694 563.317H686.573V599.659C686.573 619.729 670.265 636 650.15 636C630.032 636 613.727 619.729 613.727 599.659V480.349ZM842.577 444.008C862.692 444.008 879 460.279 879 480.349V599.659C879 619.729 862.692 636 842.577 636C822.46 636 806.152 619.729 806.152 599.659V480.349C806.152 460.279 822.46 444.008 842.577 444.008ZM480.481 563.317H480.652L480.568 563.145L480.481 563.317Z"/>
  </symbol>

  <!-- WordPress -->
  <symbol id="wordpress" viewBox="0 0 122.52 122.523">
    <g fill="#fff">
      <path d="m8.708 61.26c0 20.802 12.089 38.779 29.619 47.298l-25.069-68.686c-2.916 6.536-4.55 13.769-4.55 21.388z"/>
      <path d="m96.74 58.608c0-6.495-2.333-10.993-4.334-14.494-2.664-4.329-5.161-7.995-5.161-12.324 0-4.831 3.664-9.328 8.825-9.328.233 0 .454.029.681.042-9.35-8.566-21.807-13.796-35.489-13.796-18.36 0-34.513 9.42-43.91 23.688 1.233.037 2.395.063 3.382.063 5.497 0 14.006-.667 14.006-.667 2.833-.167 3.167 3.994.337 4.329 0 0-2.847.335-6.015.501l19.138 56.925 11.501-34.493-8.188-22.434c-2.83-.166-5.511-.501-5.511-.501-2.832-.166-2.5-4.496.332-4.329 0 0 8.679.667 13.843.667 5.496 0 14.006-.667 14.006-.667 2.835-.167 3.168 3.994.337 4.329 0 0-2.853.335-6.015.501l18.992 56.494 5.242-17.517c2.272-7.269 4.001-12.49 4.001-16.989z"/>
      <path d="m62.184 65.857-15.768 45.819c4.708 1.384 9.687 2.141 14.846 2.141 6.12 0 11.989-1.058 17.452-2.979-.141-.225-.269-.464-.374-.724z"/>
      <path d="m107.376 36.046c.226 1.674.354 3.471.354 5.404 0 5.333-.996 11.328-3.996 18.824l-16.053 46.413c15.624-9.111 26.133-26.038 26.133-45.426.001-9.137-2.333-17.729-6.438-25.215z"/>
      <path d="m61.262 0c-33.779 0-61.262 27.481-61.262 61.26 0 33.783 27.483 61.263 61.262 61.263 33.778 0 61.265-27.48 61.265-61.263-.001-33.779-27.487-61.26-61.265-61.26zm0 119.715c-32.23 0-58.453-26.223-58.453-58.455 0-32.23 26.222-58.451 58.453-58.451 32.229 0 58.45 26.221 58.45 58.451 0 32.232-26.221 58.455-58.45 58.455z"/>
    </g>
  </symbol>
</svg>
